<svg width="587" height="172" viewBox="0 0 587 172" fill="none" xmlns="http://www.w3.org/2000/svg">
<g filter="url(#filter0_dd_132_406)">
<path d="M21 11C21 6.58172 24.5817 3 29 3H558C562.418 3 566 6.58172 566 11V123C566 127.418 562.418 131 558 131H29C24.5817 131 21 127.418 21 123V11Z" fill="white"/>
<path d="M21 11C21 6.58172 24.5817 3 29 3H558C562.418 3 566 6.58172 566 11V123C566 127.418 562.418 131 558 131H29C24.5817 131 21 127.418 21 123V11Z" stroke="#DEE2E6"/>
<rect x="61" y="39" width="56" height="56" rx="8" fill="#4845AE"/>
<rect x="61" y="39" width="56" height="56" rx="8" stroke="#4845AE" stroke-width="2"/>
<path d="M89 78.6666C92.2217 78.6666 95.1383 77.3607 97.2496 75.2495C99.3609 73.1382 100.667 70.2216 100.667 66.9999C100.667 63.7783 99.3609 60.8616 97.2496 58.7503C95.1383 56.6391 92.2217 55.3333 89 55.3333C85.7784 55.3333 82.8617 56.6391 80.7505 58.7503C78.6392 60.8616 77.3334 63.7783 77.3334 66.9999C77.3334 70.2216 78.6392 73.1382 80.7505 75.2495C82.8617 77.3607 85.7784 78.6666 89 78.6666Z" fill="#F5F5F5" fill-opacity="0.25"/>
<path d="M84.3334 67L87.8334 70.5L94.8334 63.5" stroke="#1B1A55" stroke-width="2" stroke-linecap="round" stroke-linejoin="round"/>
<path d="M150.339 47.4531C150.273 46.8329 149.994 46.3499 149.501 46.0043C149.014 45.6586 148.379 45.4858 147.598 45.4858C147.049 45.4858 146.578 45.5687 146.185 45.7344C145.792 45.9001 145.491 46.125 145.283 46.4091C145.074 46.6932 144.968 47.0175 144.963 47.3821C144.963 47.6851 145.032 47.9479 145.169 48.1705C145.311 48.393 145.503 48.5824 145.744 48.7386C145.986 48.8902 146.253 49.018 146.547 49.1222C146.84 49.2263 147.136 49.3139 147.435 49.3849L148.798 49.7259C149.348 49.8537 149.875 50.0265 150.382 50.2443C150.893 50.4621 151.35 50.7367 151.753 51.0682C152.16 51.3996 152.482 51.7997 152.719 52.2685C152.955 52.7372 153.074 53.2865 153.074 53.9162C153.074 54.7685 152.856 55.5189 152.42 56.1676C151.985 56.8116 151.355 57.3158 150.531 57.6804C149.712 58.0402 148.72 58.2202 147.555 58.2202C146.424 58.2202 145.441 58.045 144.608 57.6946C143.779 57.3442 143.131 56.8329 142.662 56.1605C142.198 55.4882 141.947 54.669 141.909 53.7031H144.501C144.539 54.2098 144.696 54.6312 144.97 54.9673C145.245 55.3035 145.602 55.5545 146.043 55.7202C146.488 55.8859 146.985 55.9688 147.534 55.9688C148.107 55.9688 148.609 55.8835 149.04 55.7131C149.475 55.5379 149.816 55.2964 150.062 54.9886C150.309 54.6761 150.434 54.3116 150.439 53.8949C150.434 53.5161 150.323 53.2036 150.105 52.9574C149.887 52.7064 149.582 52.4981 149.189 52.3324C148.801 52.1619 148.346 52.0104 147.825 51.8778L146.17 51.4517C144.973 51.1439 144.026 50.6776 143.33 50.0526C142.638 49.4228 142.293 48.5871 142.293 47.5455C142.293 46.6884 142.525 45.938 142.989 45.294C143.457 44.6501 144.094 44.1506 144.899 43.7955C145.704 43.4356 146.616 43.2557 147.634 43.2557C148.666 43.2557 149.57 43.4356 150.347 43.7955C151.128 44.1506 151.741 44.6454 152.186 45.2798C152.631 45.9096 152.861 46.634 152.875 47.4531H150.339ZM162.262 53.4119V47.0909H164.833V58H162.341V56.0611H162.227C161.981 56.6719 161.576 57.1714 161.012 57.5597C160.454 57.9479 159.765 58.142 158.946 58.142C158.231 58.142 157.599 57.9834 157.049 57.6662C156.505 57.3442 156.079 56.8778 155.771 56.267C155.463 55.6515 155.309 54.9081 155.309 54.0369V47.0909H157.88V53.6392C157.88 54.3305 158.07 54.8797 158.449 55.2869C158.827 55.6941 159.324 55.8977 159.94 55.8977C160.319 55.8977 160.686 55.8054 161.041 55.6207C161.396 55.4361 161.687 55.1615 161.914 54.7969C162.146 54.4276 162.262 53.9659 162.262 53.4119ZM172.236 58.2131C171.147 58.2131 170.212 57.974 169.43 57.4957C168.654 57.0175 168.055 56.357 167.634 55.5142C167.217 54.6667 167.009 53.6913 167.009 52.5881C167.009 51.4801 167.222 50.5024 167.648 49.6548C168.074 48.8026 168.675 48.1397 169.452 47.6662C170.233 47.188 171.156 46.9489 172.222 46.9489C173.107 46.9489 173.891 47.1122 174.572 47.4389C175.259 47.7609 175.806 48.2178 176.213 48.8097C176.62 49.3968 176.852 50.0833 176.909 50.8693H174.452C174.352 50.3437 174.116 49.9058 173.741 49.5554C173.372 49.2003 172.877 49.0227 172.257 49.0227C171.732 49.0227 171.27 49.1648 170.872 49.4489C170.474 49.7282 170.164 50.1307 169.942 50.6562C169.724 51.1818 169.615 51.8116 169.615 52.5455C169.615 53.2888 169.724 53.928 169.942 54.4631C170.16 54.9934 170.465 55.4029 170.858 55.6918C171.256 55.9759 171.722 56.1179 172.257 56.1179C172.636 56.1179 172.974 56.0469 173.273 55.9048C173.576 55.758 173.829 55.5473 174.033 55.2727C174.236 54.9981 174.376 54.6643 174.452 54.2713H176.909C176.848 55.0431 176.62 55.7273 176.227 56.3239C175.834 56.9157 175.299 57.3797 174.622 57.7159C173.945 58.0473 173.15 58.2131 172.236 58.2131ZM183.779 58.2131C182.69 58.2131 181.755 57.974 180.973 57.4957C180.197 57.0175 179.598 56.357 179.176 55.5142C178.76 54.6667 178.551 53.6913 178.551 52.5881C178.551 51.4801 178.765 50.5024 179.191 49.6548C179.617 48.8026 180.218 48.1397 180.995 47.6662C181.776 47.188 182.699 46.9489 183.765 46.9489C184.65 46.9489 185.434 47.1122 186.115 47.4389C186.802 47.7609 187.349 48.2178 187.756 48.8097C188.163 49.3968 188.395 50.0833 188.452 50.8693H185.995C185.895 50.3437 185.658 49.9058 185.284 49.5554C184.915 49.2003 184.42 49.0227 183.8 49.0227C183.275 49.0227 182.813 49.1648 182.415 49.4489C182.017 49.7282 181.707 50.1307 181.485 50.6562C181.267 51.1818 181.158 51.8116 181.158 52.5455C181.158 53.2888 181.267 53.928 181.485 54.4631C181.703 54.9934 182.008 55.4029 182.401 55.6918C182.799 55.9759 183.265 56.1179 183.8 56.1179C184.179 56.1179 184.517 56.0469 184.816 55.9048C185.119 55.758 185.372 55.5473 185.576 55.2727C185.779 54.9981 185.919 54.6643 185.995 54.2713H188.452C188.391 55.0431 188.163 55.7273 187.77 56.3239C187.377 56.9157 186.842 57.3797 186.165 57.7159C185.488 58.0473 184.693 58.2131 183.779 58.2131ZM195.393 58.2131C194.299 58.2131 193.354 57.9858 192.559 57.5312C191.768 57.072 191.16 56.4233 190.734 55.5852C190.308 54.7424 190.094 53.7505 190.094 52.6094C190.094 51.4872 190.308 50.5024 190.734 49.6548C191.165 48.8026 191.766 48.1397 192.538 47.6662C193.309 47.188 194.216 46.9489 195.258 46.9489C195.93 46.9489 196.565 47.0578 197.161 47.2756C197.763 47.4886 198.293 47.8201 198.752 48.2699C199.216 48.7197 199.581 49.2926 199.846 49.9886C200.111 50.6799 200.244 51.5038 200.244 52.4602V53.2486H191.302V51.5156H197.779C197.774 51.0232 197.668 50.5852 197.46 50.2017C197.251 49.8134 196.96 49.508 196.586 49.2855C196.217 49.063 195.786 48.9517 195.293 48.9517C194.768 48.9517 194.306 49.0795 193.908 49.3352C193.511 49.5862 193.201 49.9176 192.978 50.3295C192.76 50.7367 192.649 51.1842 192.644 51.6719V53.1847C192.644 53.8191 192.76 54.3636 192.992 54.8182C193.224 55.268 193.549 55.6136 193.965 55.8551C194.382 56.0919 194.87 56.2102 195.428 56.2102C195.802 56.2102 196.141 56.1581 196.444 56.054C196.747 55.9451 197.01 55.7865 197.232 55.5781C197.455 55.3698 197.623 55.1117 197.737 54.804L200.137 55.0739C199.986 55.7083 199.697 56.2623 199.271 56.7358C198.849 57.2045 198.309 57.5691 197.651 57.8295C196.993 58.0852 196.24 58.2131 195.393 58.2131ZM211.041 49.9744L208.697 50.2301C208.631 49.9934 208.515 49.7708 208.349 49.5625C208.188 49.3542 207.97 49.1861 207.696 49.0582C207.421 48.9304 207.085 48.8665 206.687 48.8665C206.152 48.8665 205.702 48.9825 205.338 49.2145C204.978 49.4465 204.8 49.7472 204.805 50.1165C204.8 50.4337 204.916 50.6918 205.153 50.8906C205.395 51.0895 205.792 51.2528 206.346 51.3807L208.207 51.7784C209.239 52.0009 210.006 52.3537 210.508 52.8366C211.015 53.3196 211.27 53.9517 211.275 54.733C211.27 55.4195 211.069 56.0256 210.672 56.5511C210.279 57.072 209.732 57.4792 209.031 57.7727C208.33 58.0663 207.525 58.2131 206.616 58.2131C205.281 58.2131 204.206 57.9337 203.392 57.375C202.577 56.8116 202.092 56.0279 201.936 55.0241L204.443 54.7827C204.556 55.2751 204.798 55.6468 205.167 55.8977C205.537 56.1487 206.017 56.2741 206.609 56.2741C207.22 56.2741 207.71 56.1487 208.079 55.8977C208.453 55.6468 208.64 55.3366 208.64 54.9673C208.64 54.6548 208.52 54.3968 208.278 54.1932C208.041 53.9896 207.672 53.8333 207.17 53.7244L205.309 53.3338C204.263 53.116 203.489 52.7491 202.987 52.233C202.485 51.7121 202.236 51.054 202.241 50.2585C202.236 49.5862 202.419 49.0038 202.788 48.5114C203.162 48.0142 203.681 47.6307 204.343 47.3608C205.011 47.0862 205.78 46.9489 206.652 46.9489C207.93 46.9489 208.936 47.2211 209.67 47.7656C210.409 48.3101 210.866 49.0464 211.041 49.9744ZM222.017 49.9744L219.674 50.2301C219.607 49.9934 219.491 49.7708 219.326 49.5625C219.165 49.3542 218.947 49.1861 218.672 49.0582C218.398 48.9304 218.061 48.8665 217.664 48.8665C217.129 48.8665 216.679 48.9825 216.314 49.2145C215.954 49.4465 215.777 49.7472 215.782 50.1165C215.777 50.4337 215.893 50.6918 216.13 50.8906C216.371 51.0895 216.769 51.2528 217.323 51.3807L219.184 51.7784C220.216 52.0009 220.983 52.3537 221.485 52.8366C221.991 53.3196 222.247 53.9517 222.252 54.733C222.247 55.4195 222.046 56.0256 221.648 56.5511C221.255 57.072 220.708 57.4792 220.007 57.7727C219.307 58.0663 218.502 58.2131 217.593 58.2131C216.257 58.2131 215.183 57.9337 214.368 57.375C213.554 56.8116 213.069 56.0279 212.912 55.0241L215.419 54.7827C215.533 55.2751 215.775 55.6468 216.144 55.8977C216.513 56.1487 216.994 56.2741 217.586 56.2741C218.196 56.2741 218.686 56.1487 219.056 55.8977C219.43 55.6468 219.617 55.3366 219.617 54.9673C219.617 54.6548 219.496 54.3968 219.255 54.1932C219.018 53.9896 218.649 53.8333 218.147 53.7244L216.286 53.3338C215.239 53.116 214.465 52.7491 213.963 52.233C213.462 51.7121 213.213 51.054 213.218 50.2585C213.213 49.5862 213.395 49.0038 213.765 48.5114C214.139 48.0142 214.657 47.6307 215.32 47.3608C215.988 47.0862 216.757 46.9489 217.628 46.9489C218.907 46.9489 219.913 47.2211 220.647 47.7656C221.385 48.3101 221.842 49.0464 222.017 49.9744ZM229.897 47.0909V49.0795H223.449V47.0909H229.897ZM225.061 58V46.0611C225.061 45.3272 225.212 44.7164 225.515 44.2287C225.823 43.741 226.235 43.3764 226.751 43.1349C227.267 42.8935 227.84 42.7727 228.47 42.7727C228.915 42.7727 229.31 42.8082 229.656 42.8793C230.002 42.9503 230.257 43.0142 230.423 43.071L229.912 45.0597C229.803 45.0265 229.665 44.9934 229.5 44.9602C229.334 44.9223 229.149 44.9034 228.946 44.9034C228.467 44.9034 228.129 45.0194 227.93 45.2514C227.736 45.4787 227.639 45.8054 227.639 46.2315V58H225.061ZM238.864 53.4119V47.0909H241.435V58H238.942V56.0611H238.828C238.582 56.6719 238.177 57.1714 237.614 57.5597C237.055 57.9479 236.366 58.142 235.547 58.142C234.832 58.142 234.2 57.9834 233.651 57.6662C233.106 57.3442 232.68 56.8778 232.373 56.267C232.065 55.6515 231.911 54.9081 231.911 54.0369V47.0909H234.482V53.6392C234.482 54.3305 234.671 54.8797 235.05 55.2869C235.429 55.6941 235.926 55.8977 236.542 55.8977C236.92 55.8977 237.287 55.8054 237.642 55.6207C237.998 55.4361 238.289 55.1615 238.516 54.7969C238.748 54.4276 238.864 53.9659 238.864 53.4119ZM246.65 43.4545V58H244.079V43.4545H246.65ZM251.865 43.4545V58H249.294V43.4545H251.865ZM256.107 62.0909C255.756 62.0909 255.432 62.0625 255.134 62.0057C254.84 61.9536 254.606 61.892 254.43 61.821L255.027 59.8182C255.401 59.9271 255.735 59.9792 256.028 59.9744C256.322 59.9697 256.58 59.8774 256.803 59.6974C257.03 59.5223 257.222 59.2287 257.378 58.8168L257.598 58.2273L253.642 47.0909H256.369L258.884 55.3295H258.997L261.518 47.0909H264.253L259.885 59.321C259.681 59.8987 259.411 60.3935 259.075 60.8054C258.739 61.2221 258.327 61.5393 257.839 61.7571C257.357 61.9796 256.779 62.0909 256.107 62.0909ZM271.107 58V43.4545H273.741V55.7912H280.148V58H271.107ZM287.08 58.2131C286.014 58.2131 285.091 57.9787 284.31 57.5099C283.528 57.0412 282.922 56.3854 282.491 55.5426C282.065 54.6998 281.852 53.715 281.852 52.5881C281.852 51.4612 282.065 50.474 282.491 49.6264C282.922 48.7789 283.528 48.1207 284.31 47.652C285.091 47.1832 286.014 46.9489 287.08 46.9489C288.145 46.9489 289.068 47.1832 289.849 47.652C290.631 48.1207 291.234 48.7789 291.661 49.6264C292.091 50.474 292.307 51.4612 292.307 52.5881C292.307 53.715 292.091 54.6998 291.661 55.5426C291.234 56.3854 290.631 57.0412 289.849 57.5099C289.068 57.9787 288.145 58.2131 287.08 58.2131ZM287.094 56.1534C287.671 56.1534 288.154 55.9948 288.543 55.6776C288.931 55.3556 289.22 54.9247 289.409 54.3849C289.603 53.8452 289.7 53.2438 289.7 52.581C289.7 51.9134 289.603 51.3097 289.409 50.7699C289.22 50.2254 288.931 49.7921 288.543 49.4702C288.154 49.1482 287.671 48.9872 287.094 48.9872C286.502 48.9872 286.009 49.1482 285.616 49.4702C285.228 49.7921 284.937 50.2254 284.743 50.7699C284.554 51.3097 284.459 51.9134 284.459 52.581C284.459 53.2438 284.554 53.8452 284.743 54.3849C284.937 54.9247 285.228 55.3556 285.616 55.6776C286.009 55.9948 286.502 56.1534 287.094 56.1534ZM299.233 62.3182C298.31 62.3182 297.517 62.1927 296.854 61.9418C296.191 61.6955 295.658 61.3641 295.256 60.9474C294.854 60.5308 294.574 60.0691 294.418 59.5625L296.733 59.0014C296.837 59.2145 296.989 59.4252 297.188 59.6335C297.387 59.8466 297.654 60.0218 297.99 60.1591C298.331 60.3011 298.76 60.3722 299.276 60.3722C300.005 60.3722 300.609 60.1946 301.087 59.8395C301.565 59.4891 301.804 58.9115 301.804 58.1065V56.0398H301.676C301.544 56.3049 301.35 56.5772 301.094 56.8565C300.843 57.1359 300.509 57.3703 300.093 57.5597C299.681 57.7491 299.162 57.8438 298.537 57.8438C297.699 57.8438 296.939 57.6473 296.257 57.2543C295.58 56.8565 295.041 56.2647 294.638 55.4787C294.24 54.688 294.042 53.6984 294.042 52.5099C294.042 51.312 294.24 50.3011 294.638 49.4773C295.041 48.6487 295.583 48.0213 296.265 47.5952C296.946 47.1643 297.706 46.9489 298.544 46.9489C299.184 46.9489 299.709 47.0578 300.121 47.2756C300.538 47.4886 300.869 47.7467 301.115 48.0497C301.362 48.348 301.549 48.6297 301.676 48.8949H301.819V47.0909H304.354V58.1776C304.354 59.1103 304.132 59.8821 303.686 60.4929C303.241 61.1037 302.633 61.5606 301.861 61.8636C301.089 62.1667 300.213 62.3182 299.233 62.3182ZM299.255 55.8267C299.799 55.8267 300.263 55.6941 300.647 55.429C301.03 55.1638 301.321 54.7827 301.52 54.2855C301.719 53.7884 301.819 53.1918 301.819 52.4957C301.819 51.8092 301.719 51.2079 301.52 50.6918C301.326 50.1757 301.037 49.7756 300.654 49.4915C300.275 49.2027 299.809 49.0582 299.255 49.0582C298.682 49.0582 298.203 49.2074 297.82 49.5057C297.436 49.804 297.148 50.2135 296.953 50.7344C296.759 51.2505 296.662 51.8376 296.662 52.4957C296.662 53.1634 296.759 53.7481 296.953 54.25C297.152 54.7472 297.444 55.1354 297.827 55.4148C298.215 55.6894 298.691 55.8267 299.255 55.8267ZM311.733 62.3182C310.81 62.3182 310.017 62.1927 309.354 61.9418C308.691 61.6955 308.158 61.3641 307.756 60.9474C307.354 60.5308 307.074 60.0691 306.918 59.5625L309.233 59.0014C309.337 59.2145 309.489 59.4252 309.688 59.6335C309.887 59.8466 310.154 60.0218 310.49 60.1591C310.831 60.3011 311.26 60.3722 311.776 60.3722C312.505 60.3722 313.109 60.1946 313.587 59.8395C314.065 59.4891 314.304 58.9115 314.304 58.1065V56.0398H314.176C314.044 56.3049 313.85 56.5772 313.594 56.8565C313.343 57.1359 313.009 57.3703 312.593 57.5597C312.181 57.7491 311.662 57.8438 311.037 57.8438C310.199 57.8438 309.439 57.6473 308.757 57.2543C308.08 56.8565 307.541 56.2647 307.138 55.4787C306.74 54.688 306.542 53.6984 306.542 52.5099C306.542 51.312 306.74 50.3011 307.138 49.4773C307.541 48.6487 308.083 48.0213 308.765 47.5952C309.446 47.1643 310.206 46.9489 311.044 46.9489C311.684 46.9489 312.209 47.0578 312.621 47.2756C313.038 47.4886 313.369 47.7467 313.615 48.0497C313.862 48.348 314.049 48.6297 314.176 48.8949H314.319V47.0909H316.854V58.1776C316.854 59.1103 316.632 59.8821 316.186 60.4929C315.741 61.1037 315.133 61.5606 314.361 61.8636C313.589 62.1667 312.713 62.3182 311.733 62.3182ZM311.755 55.8267C312.299 55.8267 312.763 55.6941 313.147 55.429C313.53 55.1638 313.821 54.7827 314.02 54.2855C314.219 53.7884 314.319 53.1918 314.319 52.4957C314.319 51.8092 314.219 51.2079 314.02 50.6918C313.826 50.1757 313.537 49.7756 313.154 49.4915C312.775 49.2027 312.309 49.0582 311.755 49.0582C311.182 49.0582 310.703 49.2074 310.32 49.5057C309.936 49.804 309.648 50.2135 309.453 50.7344C309.259 51.2505 309.162 51.8376 309.162 52.4957C309.162 53.1634 309.259 53.7481 309.453 54.25C309.652 54.7472 309.944 55.1354 310.327 55.4148C310.715 55.6894 311.191 55.8267 311.755 55.8267ZM324.319 58.2131C323.225 58.2131 322.28 57.9858 321.485 57.5312C320.694 57.072 320.086 56.4233 319.659 55.5852C319.233 54.7424 319.02 53.7505 319.02 52.6094C319.02 51.4872 319.233 50.5024 319.659 49.6548C320.09 48.8026 320.692 48.1397 321.463 47.6662C322.235 47.188 323.142 46.9489 324.184 46.9489C324.856 46.9489 325.49 47.0578 326.087 47.2756C326.688 47.4886 327.219 47.8201 327.678 48.2699C328.142 48.7197 328.507 49.2926 328.772 49.9886C329.037 50.6799 329.169 51.5038 329.169 52.4602V53.2486H320.228V51.5156H326.705C326.7 51.0232 326.594 50.5852 326.385 50.2017C326.177 49.8134 325.886 49.508 325.512 49.2855C325.142 49.063 324.712 48.9517 324.219 48.9517C323.694 48.9517 323.232 49.0795 322.834 49.3352C322.436 49.5862 322.126 49.9176 321.904 50.3295C321.686 50.7367 321.575 51.1842 321.57 51.6719V53.1847C321.57 53.8191 321.686 54.3636 321.918 54.8182C322.15 55.268 322.474 55.6136 322.891 55.8551C323.308 56.0919 323.795 56.2102 324.354 56.2102C324.728 56.2102 325.067 56.1581 325.37 56.054C325.673 55.9451 325.935 55.7865 326.158 55.5781C326.381 55.3698 326.549 55.1117 326.662 54.804L329.063 55.0739C328.911 55.7083 328.623 56.2623 328.196 56.7358C327.775 57.2045 327.235 57.5691 326.577 57.8295C325.919 58.0852 325.166 58.2131 324.319 58.2131ZM335.393 58.1918C334.536 58.1918 333.769 57.9716 333.092 57.5312C332.415 57.0909 331.879 56.4517 331.487 55.6136C331.094 54.7756 330.897 53.7576 330.897 52.5597C330.897 51.3475 331.096 50.3248 331.494 49.4915C331.896 48.6534 332.438 48.0213 333.12 47.5952C333.802 47.1643 334.562 46.9489 335.4 46.9489C336.039 46.9489 336.565 47.0578 336.977 47.2756C337.388 47.4886 337.715 47.7467 337.957 48.0497C338.198 48.348 338.385 48.6297 338.518 48.8949H338.624V43.4545H341.202V58H338.674V56.2812H338.518C338.385 56.5464 338.193 56.8281 337.942 57.1264C337.692 57.42 337.36 57.6709 336.948 57.8793C336.536 58.0876 336.018 58.1918 335.393 58.1918ZM336.11 56.0824C336.655 56.0824 337.119 55.9356 337.502 55.642C337.886 55.3437 338.177 54.9295 338.376 54.3991C338.575 53.8688 338.674 53.2509 338.674 52.5455C338.674 51.84 338.575 51.2268 338.376 50.706C338.182 50.1851 337.893 49.7803 337.509 49.4915C337.13 49.2027 336.664 49.0582 336.11 49.0582C335.537 49.0582 335.059 49.2074 334.675 49.5057C334.292 49.804 334.003 50.2159 333.809 50.7415C333.615 51.267 333.518 51.8684 333.518 52.5455C333.518 53.2273 333.615 53.8357 333.809 54.3707C334.008 54.901 334.299 55.3201 334.683 55.6278C335.071 55.9309 335.547 56.0824 336.11 56.0824ZM351.652 43.4545V58H349.017V43.4545H351.652ZM356.962 51.608V58H354.391V47.0909H356.849V48.9446H356.977C357.228 48.3338 357.628 47.8485 358.177 47.4886C358.731 47.1288 359.415 46.9489 360.229 46.9489C360.982 46.9489 361.638 47.1098 362.197 47.4318C362.76 47.7538 363.196 48.2202 363.504 48.831C363.816 49.4418 363.97 50.1828 363.965 51.054V58H361.394V51.4517C361.394 50.7225 361.205 50.152 360.826 49.7401C360.452 49.3281 359.933 49.1222 359.271 49.1222C358.821 49.1222 358.421 49.2216 358.07 49.4205C357.725 49.6146 357.452 49.8963 357.254 50.2656C357.059 50.6349 356.962 51.0824 356.962 51.608ZM369.725 43.4545L369.491 53.7244H367.204L366.977 43.4545H369.725ZM368.347 58.1562C367.916 58.1562 367.547 58.0047 367.239 57.7017C366.936 57.3987 366.785 57.0294 366.785 56.5938C366.785 56.1676 366.936 55.803 367.239 55.5C367.547 55.197 367.916 55.0455 368.347 55.0455C368.769 55.0455 369.133 55.197 369.441 55.5C369.754 55.803 369.91 56.1676 369.91 56.5938C369.91 56.8826 369.836 57.1454 369.69 57.3821C369.548 57.6188 369.358 57.8082 369.121 57.9503C368.889 58.0876 368.631 58.1562 368.347 58.1562Z" fill="#4845AE"/>
<path d="M141.358 75.8182H142.77L145.594 80.571H145.713L148.537 75.8182H149.949L146.27 81.804V86H145.037V81.804L141.358 75.8182ZM153.407 86.1591C152.717 86.1591 152.112 85.995 151.592 85.6669C151.075 85.3388 150.671 84.8797 150.379 84.2898C150.091 83.6998 149.946 83.0104 149.946 82.2216C149.946 81.4261 150.091 80.7318 150.379 80.1385C150.671 79.5452 151.075 79.0845 151.592 78.7564C152.112 78.4283 152.717 78.2642 153.407 78.2642C154.096 78.2642 154.699 78.4283 155.216 78.7564C155.737 79.0845 156.141 79.5452 156.429 80.1385C156.721 80.7318 156.867 81.4261 156.867 82.2216C156.867 83.0104 156.721 83.6998 156.429 84.2898C156.141 84.8797 155.737 85.3388 155.216 85.6669C154.699 85.995 154.096 86.1591 153.407 86.1591ZM153.407 85.1051C153.93 85.1051 154.361 84.9709 154.699 84.7024C155.037 84.4339 155.288 84.081 155.45 83.6435C155.612 83.206 155.694 82.732 155.694 82.2216C155.694 81.7112 155.612 81.2356 155.45 80.7947C155.288 80.3539 155.037 79.9976 154.699 79.7259C154.361 79.4541 153.93 79.3182 153.407 79.3182C152.883 79.3182 152.452 79.4541 152.114 79.7259C151.776 79.9976 151.526 80.3539 151.363 80.7947C151.201 81.2356 151.12 81.7112 151.12 82.2216C151.12 82.732 151.201 83.206 151.363 83.6435C151.526 84.081 151.776 84.4339 152.114 84.7024C152.452 84.9709 152.883 85.1051 153.407 85.1051ZM163.47 82.8778V78.3636H164.644V86H163.47V84.7074H163.391C163.212 85.0952 162.933 85.425 162.556 85.6967C162.178 85.9652 161.7 86.0994 161.124 86.0994C160.646 86.0994 160.222 85.995 159.851 85.7862C159.48 85.5741 159.188 85.2559 158.976 84.8317C158.764 84.4041 158.658 83.8655 158.658 83.2159V78.3636H159.831V83.1364C159.831 83.6932 159.987 84.1373 160.298 84.4688C160.613 84.8002 161.014 84.9659 161.502 84.9659C161.793 84.9659 162.09 84.8913 162.392 84.7422C162.696 84.593 162.952 84.3643 163.157 84.0561C163.366 83.7479 163.47 83.3551 163.47 82.8778ZM168.032 75.8182V76.7131C168.032 76.9848 167.982 77.2749 167.883 77.5831C167.787 77.888 167.644 78.1847 167.455 78.473C167.269 78.758 167.044 79.0066 166.779 79.2188L166.143 78.7017C166.351 78.4034 166.532 78.0935 166.684 77.772C166.84 77.4472 166.918 77.1009 166.918 76.733V75.8182H168.032ZM176.031 78.3636L173.207 86H172.014L169.19 78.3636H170.463L172.571 84.4489H172.65L174.758 78.3636H176.031ZM180.508 86.1591C179.772 86.1591 179.137 85.9967 178.604 85.6719C178.074 85.3438 177.664 84.8864 177.376 84.2997C177.091 83.7098 176.948 83.0237 176.948 82.2415C176.948 81.4593 177.091 80.7699 177.376 80.1733C177.664 79.5734 178.065 79.1061 178.579 78.7713C179.096 78.4332 179.699 78.2642 180.389 78.2642C180.786 78.2642 181.179 78.3305 181.567 78.4631C181.955 78.5956 182.308 78.8111 182.626 79.1094C182.944 79.4044 183.198 79.7955 183.387 80.2827C183.575 80.7699 183.67 81.3698 183.67 82.0824V82.5795H177.784V81.5653H182.477C182.477 81.1345 182.391 80.75 182.218 80.4119C182.049 80.0739 181.807 79.8071 181.492 79.6115C181.181 79.416 180.813 79.3182 180.389 79.3182C179.921 79.3182 179.517 79.4342 179.176 79.6662C178.838 79.8949 178.577 80.1932 178.395 80.5611C178.213 80.929 178.122 81.3234 178.122 81.7443V82.4205C178.122 82.9972 178.221 83.486 178.42 83.8871C178.622 84.2848 178.902 84.5881 179.26 84.7969C179.618 85.0024 180.034 85.1051 180.508 85.1051C180.816 85.1051 181.095 85.062 181.343 84.9759C181.595 84.8864 181.812 84.7538 181.994 84.5781C182.177 84.3991 182.318 84.1771 182.417 83.9119L183.551 84.2301C183.431 84.6146 183.231 84.9527 182.949 85.2443C182.667 85.5327 182.319 85.758 181.905 85.9205C181.491 86.0795 181.025 86.1591 180.508 86.1591ZM189.551 86V75.8182H190.725V79.5767H190.824C190.91 79.4441 191.03 79.2751 191.182 79.0696C191.338 78.8608 191.56 78.6752 191.848 78.5128C192.14 78.3471 192.534 78.2642 193.031 78.2642C193.674 78.2642 194.241 78.425 194.732 78.7464C195.222 79.0679 195.605 79.5237 195.88 80.1136C196.155 80.7036 196.293 81.3996 196.293 82.2017C196.293 83.0104 196.155 83.7114 195.88 84.3047C195.605 84.8946 195.224 85.352 194.737 85.6768C194.249 85.9983 193.688 86.1591 193.051 86.1591C192.561 86.1591 192.168 86.0779 191.873 85.9155C191.578 85.7498 191.351 85.5625 191.192 85.3537C191.033 85.1416 190.91 84.9659 190.824 84.8267H190.685V86H189.551ZM190.705 82.1818C190.705 82.7585 190.789 83.2673 190.958 83.7081C191.127 84.1456 191.374 84.4886 191.699 84.7372C192.024 84.9825 192.422 85.1051 192.892 85.1051C193.383 85.1051 193.792 84.9759 194.12 84.7173C194.452 84.4555 194.7 84.1042 194.866 83.6634C195.035 83.2192 195.119 82.7254 195.119 82.1818C195.119 81.6449 195.037 81.161 194.871 80.7301C194.709 80.2959 194.462 79.9529 194.13 79.701C193.802 79.4458 193.389 79.3182 192.892 79.3182C192.415 79.3182 192.014 79.4392 191.689 79.6811C191.364 79.9197 191.119 80.2545 190.953 80.6854C190.788 81.1129 190.705 81.6117 190.705 82.1818ZM201.289 86.1591C200.553 86.1591 199.919 85.9967 199.385 85.6719C198.855 85.3438 198.445 84.8864 198.157 84.2997C197.872 83.7098 197.73 83.0237 197.73 82.2415C197.73 81.4593 197.872 80.7699 198.157 80.1733C198.445 79.5734 198.847 79.1061 199.36 78.7713C199.877 78.4332 200.481 78.2642 201.17 78.2642C201.568 78.2642 201.96 78.3305 202.348 78.4631C202.736 78.5956 203.089 78.8111 203.407 79.1094C203.725 79.4044 203.979 79.7955 204.168 80.2827C204.357 80.7699 204.451 81.3698 204.451 82.0824V82.5795H198.565V81.5653H203.258C203.258 81.1345 203.172 80.75 202.999 80.4119C202.83 80.0739 202.588 79.8071 202.274 79.6115C201.962 79.416 201.594 79.3182 201.17 79.3182C200.703 79.3182 200.298 79.4342 199.957 79.6662C199.619 79.8949 199.359 80.1932 199.176 80.5611C198.994 80.929 198.903 81.3234 198.903 81.7443V82.4205C198.903 82.9972 199.002 83.486 199.201 83.8871C199.403 84.2848 199.683 84.5881 200.041 84.7969C200.399 85.0024 200.815 85.1051 201.289 85.1051C201.597 85.1051 201.876 85.062 202.124 84.9759C202.376 84.8864 202.593 84.7538 202.776 84.5781C202.958 84.3991 203.099 84.1771 203.198 83.9119L204.332 84.2301C204.213 84.6146 204.012 84.9527 203.73 85.2443C203.449 85.5327 203.101 85.758 202.686 85.9205C202.272 86.0795 201.806 86.1591 201.289 86.1591ZM209.438 86.1591C208.702 86.1591 208.067 85.9967 207.534 85.6719C207.003 85.3438 206.594 84.8864 206.306 84.2997C206.021 83.7098 205.878 83.0237 205.878 82.2415C205.878 81.4593 206.021 80.7699 206.306 80.1733C206.594 79.5734 206.995 79.1061 207.509 78.7713C208.026 78.4332 208.629 78.2642 209.318 78.2642C209.716 78.2642 210.109 78.3305 210.497 78.4631C210.884 78.5956 211.237 78.8111 211.556 79.1094C211.874 79.4044 212.127 79.7955 212.316 80.2827C212.505 80.7699 212.6 81.3698 212.6 82.0824V82.5795H206.713V81.5653H211.406C211.406 81.1345 211.32 80.75 211.148 80.4119C210.979 80.0739 210.737 79.8071 210.422 79.6115C210.11 79.416 209.743 79.3182 209.318 79.3182C208.851 79.3182 208.447 79.4342 208.105 79.6662C207.767 79.8949 207.507 80.1932 207.325 80.5611C207.142 80.929 207.051 81.3234 207.051 81.7443V82.4205C207.051 82.9972 207.151 83.486 207.35 83.8871C207.552 84.2848 207.832 84.5881 208.19 84.7969C208.548 85.0024 208.964 85.1051 209.438 85.1051C209.746 85.1051 210.024 85.062 210.273 84.9759C210.525 84.8864 210.742 84.7538 210.924 84.5781C211.106 84.3991 211.247 84.1771 211.347 83.9119L212.48 84.2301C212.361 84.6146 212.16 84.9527 211.879 85.2443C211.597 85.5327 211.249 85.758 210.835 85.9205C210.42 86.0795 209.955 86.1591 209.438 86.1591ZM215.558 81.4062V86H214.384V78.3636H215.518V79.5568H215.617C215.796 79.169 216.068 78.8575 216.433 78.6222C216.797 78.3835 217.268 78.2642 217.845 78.2642C218.362 78.2642 218.814 78.3703 219.202 78.5824C219.59 78.7912 219.891 79.1094 220.107 79.5369C220.322 79.9612 220.43 80.4981 220.43 81.1477V86H219.257V81.2273C219.257 80.6274 219.101 80.16 218.789 79.8253C218.478 79.4872 218.05 79.3182 217.507 79.3182C217.132 79.3182 216.797 79.3994 216.502 79.5618C216.211 79.7242 215.98 79.9612 215.811 80.2727C215.642 80.5843 215.558 80.9621 215.558 81.4062ZM231.92 80.0739L230.866 80.3722C230.8 80.1965 230.702 80.0258 230.573 79.8601C230.447 79.6911 230.275 79.5518 230.056 79.4425C229.837 79.3331 229.557 79.2784 229.216 79.2784C228.749 79.2784 228.359 79.3861 228.048 79.6016C227.739 79.8137 227.585 80.0838 227.585 80.4119C227.585 80.7036 227.691 80.9339 227.903 81.103C228.116 81.272 228.447 81.4129 228.898 81.5256L230.031 81.804C230.714 81.9697 231.223 82.2232 231.558 82.5646C231.892 82.9027 232.06 83.3385 232.06 83.8722C232.06 84.3097 231.934 84.7008 231.682 85.0455C231.433 85.3902 231.085 85.6619 230.638 85.8608C230.19 86.0597 229.67 86.1591 229.077 86.1591C228.298 86.1591 227.653 85.9901 227.143 85.652C226.632 85.3139 226.309 84.8201 226.173 84.1705L227.287 83.892C227.393 84.303 227.594 84.6113 227.888 84.8168C228.187 85.0223 228.576 85.125 229.057 85.125C229.604 85.125 230.038 85.009 230.359 84.777C230.684 84.5417 230.847 84.2599 230.847 83.9318C230.847 83.6667 230.754 83.4446 230.568 83.2656C230.383 83.0833 230.098 82.9474 229.713 82.858L228.44 82.5597C227.741 82.3939 227.227 82.1371 226.899 81.7891C226.574 81.4377 226.412 80.9986 226.412 80.4716C226.412 80.0407 226.533 79.6596 226.775 79.3281C227.02 78.9967 227.353 78.7365 227.774 78.5476C228.198 78.3587 228.679 78.2642 229.216 78.2642C229.972 78.2642 230.565 78.4299 230.996 78.7614C231.43 79.0928 231.738 79.5303 231.92 80.0739ZM238.638 82.8778V78.3636H239.812V86H238.638V84.7074H238.559C238.38 85.0952 238.101 85.425 237.724 85.6967C237.346 85.9652 236.868 86.0994 236.292 86.0994C235.814 86.0994 235.39 85.995 235.019 85.7862C234.648 85.5741 234.356 85.2559 234.144 84.8317C233.932 84.4041 233.826 83.8655 233.826 83.2159V78.3636H234.999V83.1364C234.999 83.6932 235.155 84.1373 235.466 84.4688C235.781 84.8002 236.182 84.9659 236.67 84.9659C236.961 84.9659 237.258 84.8913 237.559 84.7422C237.864 84.593 238.12 84.3643 238.325 84.0561C238.534 83.7479 238.638 83.3551 238.638 82.8778ZM245.063 86.1591C244.347 86.1591 243.73 85.9901 243.213 85.652C242.696 85.3139 242.299 84.8482 242.02 84.255C241.742 83.6617 241.603 82.9839 241.603 82.2216C241.603 81.446 241.745 80.7616 242.03 80.1683C242.319 79.5717 242.72 79.1061 243.233 78.7713C243.75 78.4332 244.354 78.2642 245.043 78.2642C245.58 78.2642 246.064 78.3636 246.495 78.5625C246.926 78.7614 247.279 79.0398 247.554 79.3977C247.829 79.7557 247.999 80.1733 248.066 80.6506H246.892C246.803 80.3026 246.604 79.9943 246.296 79.7259C245.991 79.4541 245.58 79.3182 245.063 79.3182C244.605 79.3182 244.204 79.4375 243.86 79.6761C243.518 79.9115 243.252 80.2446 243.059 80.6754C242.87 81.103 242.776 81.6051 242.776 82.1818C242.776 82.7718 242.869 83.2855 243.054 83.723C243.243 84.1605 243.508 84.5002 243.85 84.7422C244.194 84.9841 244.599 85.1051 245.063 85.1051C245.368 85.1051 245.645 85.0521 245.893 84.946C246.142 84.84 246.352 84.6875 246.525 84.4886C246.697 84.2898 246.819 84.0511 246.892 83.7727H248.066C247.999 84.2235 247.835 84.6295 247.574 84.9908C247.315 85.3487 246.972 85.6338 246.544 85.8459C246.12 86.0547 245.626 86.1591 245.063 86.1591ZM252.883 86.1591C252.167 86.1591 251.551 85.9901 251.034 85.652C250.517 85.3139 250.119 84.8482 249.841 84.255C249.562 83.6617 249.423 82.9839 249.423 82.2216C249.423 81.446 249.565 80.7616 249.85 80.1683C250.139 79.5717 250.54 79.1061 251.054 78.7713C251.571 78.4332 252.174 78.2642 252.863 78.2642C253.4 78.2642 253.884 78.3636 254.315 78.5625C254.746 78.7614 255.099 79.0398 255.374 79.3977C255.649 79.7557 255.82 80.1733 255.886 80.6506H254.713C254.623 80.3026 254.424 79.9943 254.116 79.7259C253.811 79.4541 253.4 79.3182 252.883 79.3182C252.426 79.3182 252.025 79.4375 251.68 79.6761C251.339 79.9115 251.072 80.2446 250.88 80.6754C250.691 81.103 250.596 81.6051 250.596 82.1818C250.596 82.7718 250.689 83.2855 250.875 83.723C251.064 84.1605 251.329 84.5002 251.67 84.7422C252.015 84.9841 252.419 85.1051 252.883 85.1051C253.188 85.1051 253.465 85.0521 253.713 84.946C253.962 84.84 254.172 84.6875 254.345 84.4886C254.517 84.2898 254.64 84.0511 254.713 83.7727H255.886C255.82 84.2235 255.656 84.6295 255.394 84.9908C255.135 85.3487 254.792 85.6338 254.365 85.8459C253.94 86.0547 253.447 86.1591 252.883 86.1591ZM260.803 86.1591C260.067 86.1591 259.432 85.9967 258.899 85.6719C258.368 85.3438 257.959 84.8864 257.671 84.2997C257.386 83.7098 257.243 83.0237 257.243 82.2415C257.243 81.4593 257.386 80.7699 257.671 80.1733C257.959 79.5734 258.36 79.1061 258.874 78.7713C259.391 78.4332 259.994 78.2642 260.684 78.2642C261.081 78.2642 261.474 78.3305 261.862 78.4631C262.25 78.5956 262.603 78.8111 262.921 79.1094C263.239 79.4044 263.493 79.7955 263.681 80.2827C263.87 80.7699 263.965 81.3698 263.965 82.0824V82.5795H258.078V81.5653H262.772C262.772 81.1345 262.685 80.75 262.513 80.4119C262.344 80.0739 262.102 79.8071 261.787 79.6115C261.476 79.416 261.108 79.3182 260.684 79.3182C260.216 79.3182 259.812 79.4342 259.471 79.6662C259.132 79.8949 258.872 80.1932 258.69 80.5611C258.508 80.929 258.417 81.3234 258.417 81.7443V82.4205C258.417 82.9972 258.516 83.486 258.715 83.8871C258.917 84.2848 259.197 84.5881 259.555 84.7969C259.913 85.0024 260.329 85.1051 260.803 85.1051C261.111 85.1051 261.39 85.062 261.638 84.9759C261.89 84.8864 262.107 84.7538 262.289 84.5781C262.472 84.3991 262.613 84.1771 262.712 83.9119L263.846 84.2301C263.726 84.6146 263.526 84.9527 263.244 85.2443C262.962 85.5327 262.614 85.758 262.2 85.9205C261.786 86.0795 261.32 86.1591 260.803 86.1591ZM271.159 80.0739L270.105 80.3722C270.038 80.1965 269.941 80.0258 269.811 79.8601C269.685 79.6911 269.513 79.5518 269.294 79.4425C269.076 79.3331 268.796 79.2784 268.454 79.2784C267.987 79.2784 267.597 79.3861 267.286 79.6016C266.978 79.8137 266.824 80.0838 266.824 80.4119C266.824 80.7036 266.93 80.9339 267.142 81.103C267.354 81.272 267.685 81.4129 268.136 81.5256L269.27 81.804C269.952 81.9697 270.461 82.2232 270.796 82.5646C271.131 82.9027 271.298 83.3385 271.298 83.8722C271.298 84.3097 271.172 84.7008 270.92 85.0455C270.672 85.3902 270.324 85.6619 269.876 85.8608C269.429 86.0597 268.908 86.1591 268.315 86.1591C267.536 86.1591 266.891 85.9901 266.381 85.652C265.871 85.3139 265.547 84.8201 265.412 84.1705L266.525 83.892C266.631 84.303 266.832 84.6113 267.127 84.8168C267.425 85.0223 267.815 85.125 268.295 85.125C268.842 85.125 269.276 85.009 269.598 84.777C269.922 84.5417 270.085 84.2599 270.085 83.9318C270.085 83.6667 269.992 83.4446 269.806 83.2656C269.621 83.0833 269.336 82.9474 268.951 82.858L267.679 82.5597C266.979 82.3939 266.466 82.1371 266.137 81.7891C265.813 81.4377 265.65 80.9986 265.65 80.4716C265.65 80.0407 265.771 79.6596 266.013 79.3281C266.258 78.9967 266.592 78.7365 267.012 78.5476C267.437 78.3587 267.917 78.2642 268.454 78.2642C269.21 78.2642 269.803 78.4299 270.234 78.7614C270.668 79.0928 270.976 79.5303 271.159 80.0739ZM278.473 80.0739L277.419 80.3722C277.353 80.1965 277.255 80.0258 277.126 79.8601C277 79.6911 276.828 79.5518 276.609 79.4425C276.39 79.3331 276.11 79.2784 275.769 79.2784C275.301 79.2784 274.912 79.3861 274.6 79.6016C274.292 79.8137 274.138 80.0838 274.138 80.4119C274.138 80.7036 274.244 80.9339 274.456 81.103C274.668 81.272 275 81.4129 275.45 81.5256L276.584 81.804C277.267 81.9697 277.776 82.2232 278.11 82.5646C278.445 82.9027 278.612 83.3385 278.612 83.8722C278.612 84.3097 278.486 84.7008 278.235 85.0455C277.986 85.3902 277.638 85.6619 277.191 85.8608C276.743 86.0597 276.223 86.1591 275.629 86.1591C274.851 86.1591 274.206 85.9901 273.695 85.652C273.185 85.3139 272.862 84.8201 272.726 84.1705L273.84 83.892C273.946 84.303 274.146 84.6113 274.441 84.8168C274.74 85.0223 275.129 85.125 275.61 85.125C276.156 85.125 276.591 85.009 276.912 84.777C277.237 84.5417 277.399 84.2599 277.399 83.9318C277.399 83.6667 277.307 83.4446 277.121 83.2656C276.935 83.0833 276.65 82.9474 276.266 82.858L274.993 82.5597C274.294 82.3939 273.78 82.1371 273.452 81.7891C273.127 81.4377 272.965 80.9986 272.965 80.4716C272.965 80.0407 273.086 79.6596 273.328 79.3281C273.573 78.9967 273.906 78.7365 274.327 78.5476C274.751 78.3587 275.232 78.2642 275.769 78.2642C276.524 78.2642 277.118 78.4299 277.548 78.7614C277.983 79.0928 278.291 79.5303 278.473 80.0739ZM283.779 78.3636V79.358H279.663V78.3636H283.779ZM280.896 86V77.3097C280.896 76.8722 280.998 76.5076 281.204 76.2159C281.409 75.9242 281.676 75.7055 282.004 75.5597C282.332 75.4138 282.679 75.3409 283.043 75.3409C283.332 75.3409 283.567 75.3641 283.749 75.4105C283.932 75.4569 284.067 75.5 284.157 75.5398L283.819 76.554C283.759 76.5341 283.676 76.5092 283.57 76.4794C283.468 76.4496 283.332 76.4347 283.163 76.4347C282.775 76.4347 282.495 76.5324 282.322 76.728C282.153 76.9235 282.069 77.2102 282.069 77.5881V86H280.896ZM290.236 82.8778V78.3636H291.409V86H290.236V84.7074H290.156C289.977 85.0952 289.699 85.425 289.321 85.6967C288.943 85.9652 288.466 86.0994 287.889 86.0994C287.412 86.0994 286.988 85.995 286.617 85.7862C286.245 85.5741 285.954 85.2559 285.742 84.8317C285.53 84.4041 285.423 83.8655 285.423 83.2159V78.3636H286.597V83.1364C286.597 83.6932 286.753 84.1373 287.064 84.4688C287.379 84.8002 287.78 84.9659 288.267 84.9659C288.559 84.9659 288.856 84.8913 289.157 84.7422C289.462 84.593 289.717 84.3643 289.923 84.0561C290.132 83.7479 290.236 83.3551 290.236 82.8778ZM294.732 75.8182V86H293.558V75.8182H294.732ZM298.054 75.8182V86H296.881V75.8182H298.054ZM300.958 88.8636C300.76 88.8636 300.582 88.8471 300.426 88.8139C300.271 88.7841 300.163 88.7543 300.103 88.7244L300.402 87.6903C300.687 87.7633 300.939 87.7898 301.157 87.7699C301.376 87.75 301.57 87.6522 301.739 87.4766C301.911 87.3042 302.069 87.0241 302.211 86.6364L302.43 86.0398L299.606 78.3636H300.879L302.987 84.4489H303.066L305.174 78.3636H306.447L303.206 87.1136C303.06 87.508 302.879 87.8345 302.664 88.093C302.448 88.3549 302.198 88.5488 301.913 88.6747C301.631 88.8007 301.313 88.8636 300.958 88.8636ZM313.107 75.8182V86H311.933V75.8182H313.107ZM318.358 86.1591C317.668 86.1591 317.064 85.995 316.543 85.6669C316.026 85.3388 315.622 84.8797 315.33 84.2898C315.042 83.6998 314.898 83.0104 314.898 82.2216C314.898 81.4261 315.042 80.7318 315.33 80.1385C315.622 79.5452 316.026 79.0845 316.543 78.7564C317.064 78.4283 317.668 78.2642 318.358 78.2642C319.047 78.2642 319.65 78.4283 320.167 78.7564C320.688 79.0845 321.092 79.5452 321.381 80.1385C321.672 80.7318 321.818 81.4261 321.818 82.2216C321.818 83.0104 321.672 83.6998 321.381 84.2898C321.092 84.8797 320.688 85.3388 320.167 85.6669C319.65 85.995 319.047 86.1591 318.358 86.1591ZM318.358 85.1051C318.881 85.1051 319.312 84.9709 319.65 84.7024C319.988 84.4339 320.239 84.081 320.401 83.6435C320.564 83.206 320.645 82.732 320.645 82.2216C320.645 81.7112 320.564 81.2356 320.401 80.7947C320.239 80.3539 319.988 79.9976 319.65 79.7259C319.312 79.4541 318.881 79.3182 318.358 79.3182C317.834 79.3182 317.403 79.4541 317.065 79.7259C316.727 79.9976 316.477 80.3539 316.314 80.7947C316.152 81.2356 316.071 81.7112 316.071 82.2216C316.071 82.732 316.152 83.206 316.314 83.6435C316.477 84.081 316.727 84.4339 317.065 84.7024C317.403 84.9709 317.834 85.1051 318.358 85.1051ZM326.691 89.0227C326.125 89.0227 325.637 88.9498 325.23 88.804C324.822 88.6615 324.482 88.4725 324.211 88.2372C323.942 88.0052 323.728 87.7566 323.569 87.4915L324.504 86.8352C324.61 86.9744 324.744 87.1335 324.907 87.3125C325.069 87.4948 325.291 87.6522 325.573 87.7848C325.858 87.9207 326.231 87.9886 326.691 87.9886C327.308 87.9886 327.817 87.8395 328.218 87.5412C328.619 87.2429 328.819 86.7756 328.819 86.1392V84.5881H328.72C328.634 84.7273 328.511 84.8996 328.352 85.1051C328.196 85.3073 327.971 85.4879 327.676 85.647C327.384 85.8028 326.99 85.8807 326.493 85.8807C325.876 85.8807 325.323 85.7348 324.832 85.4432C324.345 85.1515 323.959 84.7273 323.674 84.1705C323.392 83.6136 323.251 82.9375 323.251 82.142C323.251 81.3598 323.389 80.6787 323.664 80.0987C323.939 79.5154 324.322 79.0646 324.812 78.7464C325.303 78.425 325.869 78.2642 326.512 78.2642C327.01 78.2642 327.404 78.3471 327.696 78.5128C327.991 78.6752 328.216 78.8608 328.372 79.0696C328.531 79.2751 328.654 79.4441 328.74 79.5767H328.859V78.3636H329.993V86.2188C329.993 86.875 329.843 87.4086 329.545 87.8196C329.25 88.2339 328.852 88.5372 328.352 88.7294C327.855 88.925 327.301 89.0227 326.691 89.0227ZM326.652 84.8267C327.122 84.8267 327.52 84.719 327.845 84.5036C328.17 84.2881 328.417 83.9782 328.586 83.5739C328.755 83.1695 328.839 82.6856 328.839 82.1222C328.839 81.572 328.756 81.0864 328.591 80.6655C328.425 80.2446 328.18 79.9148 327.855 79.6761C327.53 79.4375 327.129 79.3182 326.652 79.3182C326.154 79.3182 325.74 79.4441 325.409 79.696C325.081 79.9479 324.834 80.286 324.668 80.7102C324.506 81.1345 324.424 81.6051 324.424 82.1222C324.424 82.6525 324.507 83.1214 324.673 83.5291C324.842 83.9335 325.091 84.2517 325.419 84.4837C325.75 84.7124 326.161 84.8267 326.652 84.8267ZM335.223 89.0227C334.656 89.0227 334.169 88.9498 333.761 88.804C333.353 88.6615 333.014 88.4725 332.742 88.2372C332.473 88.0052 332.26 87.7566 332.1 87.4915L333.035 86.8352C333.141 86.9744 333.275 87.1335 333.438 87.3125C333.6 87.4948 333.822 87.6522 334.104 87.7848C334.389 87.9207 334.762 87.9886 335.223 87.9886C335.839 87.9886 336.348 87.8395 336.749 87.5412C337.15 87.2429 337.35 86.7756 337.35 86.1392V84.5881H337.251C337.165 84.7273 337.042 84.8996 336.883 85.1051C336.727 85.3073 336.502 85.4879 336.207 85.647C335.915 85.8028 335.521 85.8807 335.024 85.8807C334.407 85.8807 333.854 85.7348 333.363 85.4432C332.876 85.1515 332.49 84.7273 332.205 84.1705C331.923 83.6136 331.782 82.9375 331.782 82.142C331.782 81.3598 331.92 80.6787 332.195 80.0987C332.47 79.5154 332.853 79.0646 333.343 78.7464C333.834 78.425 334.401 78.2642 335.044 78.2642C335.541 78.2642 335.935 78.3471 336.227 78.5128C336.522 78.6752 336.747 78.8608 336.903 79.0696C337.062 79.2751 337.185 79.4441 337.271 79.5767H337.39V78.3636H338.524V86.2188C338.524 86.875 338.375 87.4086 338.076 87.8196C337.781 88.2339 337.384 88.5372 336.883 88.7294C336.386 88.925 335.833 89.0227 335.223 89.0227ZM335.183 84.8267C335.654 84.8267 336.051 84.719 336.376 84.5036C336.701 84.2881 336.948 83.9782 337.117 83.5739C337.286 83.1695 337.37 82.6856 337.37 82.1222C337.37 81.572 337.288 81.0864 337.122 80.6655C336.956 80.2446 336.711 79.9148 336.386 79.6761C336.061 79.4375 335.66 79.3182 335.183 79.3182C334.686 79.3182 334.271 79.4441 333.94 79.696C333.612 79.9479 333.365 80.286 333.199 80.7102C333.037 81.1345 332.956 81.6051 332.956 82.1222C332.956 82.6525 333.038 83.1214 333.204 83.5291C333.373 83.9335 333.622 84.2517 333.95 84.4837C334.281 84.7124 334.692 84.8267 335.183 84.8267ZM343.873 86.1591C343.137 86.1591 342.503 85.9967 341.969 85.6719C341.439 85.3438 341.029 84.8864 340.741 84.2997C340.456 83.7098 340.314 83.0237 340.314 82.2415C340.314 81.4593 340.456 80.7699 340.741 80.1733C341.029 79.5734 341.431 79.1061 341.944 78.7713C342.461 78.4332 343.065 78.2642 343.754 78.2642C344.152 78.2642 344.544 78.3305 344.932 78.4631C345.32 78.5956 345.673 78.8111 345.991 79.1094C346.309 79.4044 346.563 79.7955 346.752 80.2827C346.941 80.7699 347.035 81.3698 347.035 82.0824V82.5795H341.149V81.5653H345.842C345.842 81.1345 345.756 80.75 345.583 80.4119C345.414 80.0739 345.172 79.8071 344.858 79.6115C344.546 79.416 344.178 79.3182 343.754 79.3182C343.287 79.3182 342.882 79.4342 342.541 79.6662C342.203 79.8949 341.943 80.1932 341.76 80.5611C341.578 80.929 341.487 81.3234 341.487 81.7443V82.4205C341.487 82.9972 341.586 83.486 341.785 83.8871C341.987 84.2848 342.267 84.5881 342.625 84.7969C342.983 85.0024 343.399 85.1051 343.873 85.1051C344.181 85.1051 344.46 85.062 344.708 84.9759C344.96 84.8864 345.177 84.7538 345.36 84.5781C345.542 84.3991 345.683 84.1771 345.782 83.9119L346.916 84.2301C346.797 84.6146 346.596 84.9527 346.314 85.2443C346.033 85.5327 345.685 85.758 345.27 85.9205C344.856 86.0795 344.39 86.1591 343.873 86.1591ZM351.703 86.1591C351.067 86.1591 350.505 85.9983 350.018 85.6768C349.531 85.352 349.15 84.8946 348.875 84.3047C348.6 83.7114 348.462 83.0104 348.462 82.2017C348.462 81.3996 348.6 80.7036 348.875 80.1136C349.15 79.5237 349.533 79.0679 350.023 78.7464C350.514 78.425 351.08 78.2642 351.723 78.2642C352.221 78.2642 352.613 78.3471 352.902 78.5128C353.193 78.6752 353.415 78.8608 353.568 79.0696C353.724 79.2751 353.845 79.4441 353.931 79.5767H354.03V75.8182H355.203V86H354.07V84.8267H353.931C353.845 84.9659 353.722 85.1416 353.563 85.3537C353.404 85.5625 353.177 85.7498 352.882 85.9155C352.587 86.0779 352.194 86.1591 351.703 86.1591ZM351.863 85.1051C352.333 85.1051 352.731 84.9825 353.056 84.7372C353.381 84.4886 353.627 84.1456 353.797 83.7081C353.966 83.2673 354.05 82.7585 354.05 82.1818C354.05 81.6117 353.967 81.1129 353.801 80.6854C353.636 80.2545 353.391 79.9197 353.066 79.6811C352.741 79.4392 352.34 79.3182 351.863 79.3182C351.365 79.3182 350.951 79.4458 350.62 79.701C350.292 79.9529 350.045 80.2959 349.879 80.7301C349.717 81.161 349.635 81.6449 349.635 82.1818C349.635 82.7254 349.718 83.2192 349.884 83.6634C350.053 84.1042 350.301 84.4555 350.63 84.7173C350.961 84.9759 351.372 85.1051 351.863 85.1051ZM361.453 86V78.3636H362.626V86H361.453ZM362.049 77.0909C361.821 77.0909 361.623 77.013 361.458 76.8572C361.295 76.7015 361.214 76.5142 361.214 76.2955C361.214 76.0767 361.295 75.8894 361.458 75.7337C361.623 75.5779 361.821 75.5 362.049 75.5C362.278 75.5 362.474 75.5779 362.636 75.7337C362.802 75.8894 362.885 76.0767 362.885 76.2955C362.885 76.5142 362.802 76.7015 362.636 76.8572C362.474 77.013 362.278 77.0909 362.049 77.0909ZM365.948 81.4062V86H364.775V78.3636H365.909V79.5568H366.008C366.187 79.169 366.459 78.8575 366.823 78.6222C367.188 78.3835 367.659 78.2642 368.235 78.2642C368.752 78.2642 369.205 78.3703 369.593 78.5824C369.98 78.7912 370.282 79.1094 370.497 79.5369C370.713 79.9612 370.82 80.4981 370.82 81.1477V86H369.647V81.2273C369.647 80.6274 369.491 80.16 369.18 79.8253C368.868 79.4872 368.441 79.3182 367.897 79.3182C367.523 79.3182 367.188 79.3994 366.893 79.5618C366.601 79.7242 366.371 79.9612 366.202 80.2727C366.033 80.5843 365.948 80.9621 365.948 81.4062ZM380.223 78.3636V79.358H376.266V78.3636H380.223ZM377.419 76.5341H378.592V83.8125C378.592 84.1439 378.64 84.3925 378.737 84.5582C378.836 84.7206 378.962 84.83 379.114 84.8864C379.27 84.9394 379.434 84.9659 379.607 84.9659C379.736 84.9659 379.842 84.9593 379.925 84.946C380.008 84.9295 380.074 84.9162 380.124 84.9062L380.362 85.9602C380.283 85.9901 380.172 86.0199 380.029 86.0497C379.887 86.0829 379.706 86.0994 379.487 86.0994C379.156 86.0994 378.831 86.0282 378.513 85.8857C378.198 85.7431 377.936 85.526 377.727 85.2344C377.522 84.9427 377.419 84.5748 377.419 84.1307V76.5341ZM385.008 86.1591C384.319 86.1591 383.714 85.995 383.194 85.6669C382.676 85.3388 382.272 84.8797 381.98 84.2898C381.692 83.6998 381.548 83.0104 381.548 82.2216C381.548 81.4261 381.692 80.7318 381.98 80.1385C382.272 79.5452 382.676 79.0845 383.194 78.7564C383.714 78.4283 384.319 78.2642 385.008 78.2642C385.698 78.2642 386.301 78.4283 386.818 78.7564C387.338 79.0845 387.743 79.5452 388.031 80.1385C388.323 80.7318 388.468 81.4261 388.468 82.2216C388.468 83.0104 388.323 83.6998 388.031 84.2898C387.743 84.8797 387.338 85.3388 386.818 85.6669C386.301 85.995 385.698 86.1591 385.008 86.1591ZM385.008 85.1051C385.532 85.1051 385.963 84.9709 386.301 84.7024C386.639 84.4339 386.889 84.081 387.051 83.6435C387.214 83.206 387.295 82.732 387.295 82.2216C387.295 81.7112 387.214 81.2356 387.051 80.7947C386.889 80.3539 386.639 79.9976 386.301 79.7259C385.963 79.4541 385.532 79.3182 385.008 79.3182C384.484 79.3182 384.054 79.4541 383.716 79.7259C383.377 79.9976 383.127 80.3539 382.965 80.7947C382.802 81.2356 382.721 81.7112 382.721 82.2216C382.721 82.732 382.802 83.206 382.965 83.6435C383.127 84.081 383.377 84.4339 383.716 84.7024C384.054 84.9709 384.484 85.1051 385.008 85.1051ZM402.549 79H401.316C401.243 78.6454 401.116 78.3338 400.933 78.0653C400.754 77.7969 400.536 77.5715 400.277 77.3892C400.022 77.2036 399.739 77.0644 399.427 76.9716C399.115 76.8788 398.791 76.8324 398.453 76.8324C397.836 76.8324 397.278 76.9882 396.777 77.2997C396.28 77.6113 395.884 78.0703 395.589 78.6768C395.297 79.2834 395.151 80.0275 395.151 80.9091C395.151 81.7907 395.297 82.5348 395.589 83.1413C395.884 83.7479 396.28 84.2069 396.777 84.5185C397.278 84.83 397.836 84.9858 398.453 84.9858C398.791 84.9858 399.115 84.9394 399.427 84.8466C399.739 84.7538 400.022 84.6162 400.277 84.4339C400.536 84.2483 400.754 84.0213 400.933 83.7528C401.116 83.4811 401.243 83.1695 401.316 82.8182H402.549C402.456 83.3385 402.287 83.8042 402.042 84.2152C401.797 84.6262 401.492 84.9759 401.127 85.2642C400.763 85.5492 400.353 85.7663 399.899 85.9155C399.449 86.0646 398.966 86.1392 398.453 86.1392C397.584 86.1392 396.812 85.9271 396.136 85.5028C395.46 85.0786 394.928 84.4754 394.54 83.6932C394.152 82.911 393.958 81.983 393.958 80.9091C393.958 79.8352 394.152 78.9072 394.54 78.125C394.928 77.3428 395.46 76.7396 396.136 76.3153C396.812 75.8911 397.584 75.679 398.453 75.679C398.966 75.679 399.449 75.7536 399.899 75.9027C400.353 76.0518 400.763 76.2706 401.127 76.5589C401.492 76.844 401.797 77.192 402.042 77.603C402.287 78.0107 402.456 78.4763 402.549 79ZM406.63 86.179C406.146 86.179 405.707 86.0878 405.312 85.9055C404.918 85.7199 404.605 85.4531 404.373 85.1051C404.141 84.7538 404.025 84.3295 404.025 83.8324C404.025 83.3949 404.111 83.0402 404.283 82.7685C404.455 82.4934 404.686 82.2779 404.974 82.1222C405.262 81.9664 405.581 81.8504 405.929 81.7741C406.28 81.6946 406.633 81.6316 406.988 81.5852C407.452 81.5256 407.828 81.4808 408.116 81.451C408.408 81.4179 408.62 81.3632 408.752 81.2869C408.888 81.2107 408.956 81.0781 408.956 80.8892V80.8494C408.956 80.3589 408.822 79.9777 408.554 79.706C408.288 79.4342 407.886 79.2983 407.346 79.2983C406.785 79.2983 406.346 79.4209 406.028 79.6662C405.71 79.9115 405.486 80.1733 405.357 80.4517L404.243 80.054C404.442 79.59 404.707 79.2287 405.039 78.9702C405.373 78.7083 405.738 78.526 406.132 78.4233C406.53 78.3172 406.921 78.2642 407.306 78.2642C407.551 78.2642 407.833 78.294 408.151 78.3537C408.472 78.41 408.782 78.5277 409.081 78.7067C409.382 78.8857 409.632 79.1558 409.831 79.517C410.03 79.8783 410.13 80.3622 410.13 80.9688V86H408.956V84.9659H408.897C408.817 85.1316 408.685 85.3089 408.499 85.4979C408.313 85.6868 408.066 85.8475 407.758 85.9801C407.45 86.1127 407.074 86.179 406.63 86.179ZM406.809 85.125C407.273 85.125 407.664 85.0339 407.982 84.8516C408.303 84.6693 408.545 84.4339 408.708 84.1456C408.873 83.8572 408.956 83.554 408.956 83.2358V82.1619C408.907 82.2216 408.797 82.2763 408.628 82.326C408.462 82.3724 408.27 82.4138 408.051 82.4503C407.836 82.4834 407.626 82.5133 407.42 82.5398C407.218 82.563 407.054 82.5829 406.928 82.5994C406.623 82.6392 406.338 82.7038 406.073 82.7933C405.811 82.8795 405.599 83.0104 405.436 83.1861C405.277 83.3584 405.198 83.5937 405.198 83.892C405.198 84.2997 405.349 84.608 405.65 84.8168C405.955 85.0223 406.341 85.125 406.809 85.125ZM412.271 86V78.3636H413.405V79.5568H413.504C413.663 79.1491 413.92 78.8326 414.275 78.6072C414.629 78.3786 415.055 78.2642 415.552 78.2642C416.056 78.2642 416.475 78.3786 416.81 78.6072C417.148 78.8326 417.412 79.1491 417.601 79.5568H417.68C417.876 79.1624 418.169 78.8492 418.56 78.6172C418.951 78.3819 419.42 78.2642 419.967 78.2642C420.65 78.2642 421.208 78.478 421.643 78.9055C422.077 79.3298 422.294 79.991 422.294 80.8892V86H421.121V80.8892C421.121 80.3258 420.966 79.9231 420.658 79.6811C420.35 79.4392 419.987 79.3182 419.569 79.3182C419.032 79.3182 418.617 79.4806 418.322 79.8054C418.027 80.1269 417.879 80.5346 417.879 81.0284V86H416.686V80.7699C416.686 80.3357 416.545 79.986 416.263 79.7209C415.982 79.4524 415.619 79.3182 415.175 79.3182C414.87 79.3182 414.585 79.3994 414.319 79.5618C414.058 79.7242 413.845 79.9496 413.683 80.2379C413.524 80.523 413.444 80.8527 413.444 81.2273V86H412.271ZM424.439 88.8636V78.3636H425.573V79.5767H425.712C425.798 79.4441 425.917 79.2751 426.07 79.0696C426.226 78.8608 426.448 78.6752 426.736 78.5128C427.028 78.3471 427.422 78.2642 427.919 78.2642C428.562 78.2642 429.129 78.425 429.619 78.7464C430.11 79.0679 430.493 79.5237 430.768 80.1136C431.043 80.7036 431.181 81.3996 431.181 82.2017C431.181 83.0104 431.043 83.7114 430.768 84.3047C430.493 84.8946 430.112 85.352 429.624 85.6768C429.137 85.9983 428.575 86.1591 427.939 86.1591C427.449 86.1591 427.056 86.0779 426.761 85.9155C426.466 85.7498 426.239 85.5625 426.08 85.3537C425.921 85.1416 425.798 84.9659 425.712 84.8267H425.612V88.8636H424.439ZM425.593 82.1818C425.593 82.7585 425.677 83.2673 425.846 83.7081C426.015 84.1456 426.262 84.4886 426.587 84.7372C426.912 84.9825 427.309 85.1051 427.78 85.1051C428.271 85.1051 428.68 84.9759 429.008 84.7173C429.339 84.4555 429.588 84.1042 429.754 83.6634C429.923 83.2192 430.007 82.7254 430.007 82.1818C430.007 81.6449 429.924 81.161 429.759 80.7301C429.596 80.2959 429.349 79.9529 429.018 79.701C428.69 79.4458 428.277 79.3182 427.78 79.3182C427.303 79.3182 426.902 79.4392 426.577 79.6811C426.252 79.9197 426.007 80.2545 425.841 80.6854C425.675 81.1129 425.593 81.6117 425.593 82.1818ZM437.783 82.8778V78.3636H438.956V86H437.783V84.7074H437.703C437.524 85.0952 437.246 85.425 436.868 85.6967C436.49 85.9652 436.013 86.0994 435.436 86.0994C434.959 86.0994 434.535 85.995 434.164 85.7862C433.792 85.5741 433.501 85.2559 433.289 84.8317C433.076 84.4041 432.97 83.8655 432.97 83.2159V78.3636H434.144V83.1364C434.144 83.6932 434.299 84.1373 434.611 84.4688C434.926 84.8002 435.327 84.9659 435.814 84.9659C436.106 84.9659 436.402 84.8913 436.704 84.7422C437.009 84.593 437.264 84.3643 437.47 84.0561C437.678 83.7479 437.783 83.3551 437.783 82.8778ZM446.514 80.0739L445.46 80.3722C445.394 80.1965 445.296 80.0258 445.167 79.8601C445.041 79.6911 444.869 79.5518 444.65 79.4425C444.431 79.3331 444.151 79.2784 443.81 79.2784C443.342 79.2784 442.953 79.3861 442.641 79.6016C442.333 79.8137 442.179 80.0838 442.179 80.4119C442.179 80.7036 442.285 80.9339 442.497 81.103C442.709 81.272 443.041 81.4129 443.491 81.5256L444.625 81.804C445.308 81.9697 445.817 82.2232 446.151 82.5646C446.486 82.9027 446.653 83.3385 446.653 83.8722C446.653 84.3097 446.527 84.7008 446.276 85.0455C446.027 85.3902 445.679 85.6619 445.232 85.8608C444.784 86.0597 444.264 86.1591 443.67 86.1591C442.892 86.1591 442.247 85.9901 441.737 85.652C441.226 85.3139 440.903 84.8201 440.767 84.1705L441.881 83.892C441.987 84.303 442.187 84.6113 442.482 84.8168C442.781 85.0223 443.17 85.125 443.651 85.125C444.197 85.125 444.632 85.009 444.953 84.777C445.278 84.5417 445.44 84.2599 445.44 83.9318C445.44 83.6667 445.348 83.4446 445.162 83.2656C444.976 83.0833 444.691 82.9474 444.307 82.858L443.034 82.5597C442.335 82.3939 441.821 82.1371 441.493 81.7891C441.168 81.4377 441.006 80.9986 441.006 80.4716C441.006 80.0407 441.127 79.6596 441.369 79.3281C441.614 78.9967 441.947 78.7365 442.368 78.5476C442.792 78.3587 443.273 78.2642 443.81 78.2642C444.565 78.2642 445.159 78.4299 445.589 78.7614C446.024 79.0928 446.332 79.5303 446.514 80.0739ZM446.983 76.9119V75.8182H454.619V76.9119H451.417V86H450.184V76.9119H446.983ZM455.57 86V78.3636H456.703V79.517H456.783C456.922 79.1392 457.174 78.8326 457.539 78.5973C457.903 78.362 458.314 78.2443 458.772 78.2443C458.858 78.2443 458.966 78.246 459.095 78.2493C459.224 78.2526 459.322 78.2576 459.388 78.2642V79.4574C459.348 79.4474 459.257 79.4325 459.115 79.4126C458.975 79.3894 458.828 79.3778 458.672 79.3778C458.301 79.3778 457.97 79.4557 457.678 79.6115C457.39 79.764 457.161 79.9761 456.992 80.2479C456.826 80.5163 456.743 80.8229 456.743 81.1676V86H455.57ZM463.026 86.179C462.542 86.179 462.103 86.0878 461.709 85.9055C461.314 85.7199 461.001 85.4531 460.769 85.1051C460.537 84.7538 460.421 84.3295 460.421 83.8324C460.421 83.3949 460.507 83.0402 460.68 82.7685C460.852 82.4934 461.082 82.2779 461.371 82.1222C461.659 81.9664 461.977 81.8504 462.325 81.7741C462.676 81.6946 463.029 81.6316 463.384 81.5852C463.848 81.5256 464.224 81.4808 464.513 81.451C464.804 81.4179 465.016 81.3632 465.149 81.2869C465.285 81.2107 465.353 81.0781 465.353 80.8892V80.8494C465.353 80.3589 465.219 79.9777 464.95 79.706C464.685 79.4342 464.282 79.2983 463.742 79.2983C463.182 79.2983 462.743 79.4209 462.425 79.6662C462.106 79.9115 461.883 80.1733 461.753 80.4517L460.64 80.054C460.839 79.59 461.104 79.2287 461.435 78.9702C461.77 78.7083 462.135 78.526 462.529 78.4233C462.927 78.3172 463.318 78.2642 463.702 78.2642C463.948 78.2642 464.229 78.294 464.547 78.3537C464.869 78.41 465.179 78.5277 465.477 78.7067C465.779 78.8857 466.029 79.1558 466.228 79.517C466.427 79.8783 466.526 80.3622 466.526 80.9688V86H465.353V84.9659H465.293C465.214 85.1316 465.081 85.3089 464.895 85.4979C464.71 85.6868 464.463 85.8475 464.155 85.9801C463.846 86.1127 463.47 86.179 463.026 86.179ZM463.205 85.125C463.669 85.125 464.06 85.0339 464.378 84.8516C464.7 84.6693 464.942 84.4339 465.104 84.1456C465.27 83.8572 465.353 83.554 465.353 83.2358V82.1619C465.303 82.2216 465.194 82.2763 465.025 82.326C464.859 82.3724 464.667 82.4138 464.448 82.4503C464.233 82.4834 464.022 82.5133 463.817 82.5398C463.614 82.563 463.45 82.5829 463.324 82.5994C463.019 82.6392 462.734 82.7038 462.469 82.7933C462.207 82.8795 461.995 83.0104 461.833 83.1861C461.674 83.3584 461.594 83.5937 461.594 83.892C461.594 84.2997 461.745 84.608 462.047 84.8168C462.352 85.0223 462.738 85.125 463.205 85.125ZM471.551 86.1591C470.915 86.1591 470.353 85.9983 469.866 85.6768C469.379 85.352 468.997 84.8946 468.722 84.3047C468.447 83.7114 468.31 83.0104 468.31 82.2017C468.31 81.3996 468.447 80.7036 468.722 80.1136C468.997 79.5237 469.38 79.0679 469.871 78.7464C470.361 78.425 470.928 78.2642 471.571 78.2642C472.068 78.2642 472.461 78.3471 472.749 78.5128C473.041 78.6752 473.263 78.8608 473.415 79.0696C473.571 79.2751 473.692 79.4441 473.778 79.5767H473.878V75.8182H475.051V86H473.918V84.8267H473.778C473.692 84.9659 473.57 85.1416 473.411 85.3537C473.251 85.5625 473.024 85.7498 472.729 85.9155C472.434 86.0779 472.042 86.1591 471.551 86.1591ZM471.71 85.1051C472.181 85.1051 472.579 84.9825 472.903 84.7372C473.228 84.4886 473.475 84.1456 473.644 83.7081C473.813 83.2673 473.898 82.7585 473.898 82.1818C473.898 81.6117 473.815 81.1129 473.649 80.6854C473.483 80.2545 473.238 79.9197 472.913 79.6811C472.589 79.4392 472.188 79.3182 471.71 79.3182C471.213 79.3182 470.799 79.4458 470.467 79.701C470.139 79.9529 469.892 80.2959 469.727 80.7301C469.564 81.161 469.483 81.6449 469.483 82.1818C469.483 82.7254 469.566 83.2192 469.732 83.6634C469.901 84.1042 470.149 84.4555 470.477 84.7173C470.809 84.9759 471.22 85.1051 471.71 85.1051ZM480.565 86.1591C479.829 86.1591 479.194 85.9967 478.661 85.6719C478.13 85.3438 477.721 84.8864 477.433 84.2997C477.147 83.7098 477.005 83.0237 477.005 82.2415C477.005 81.4593 477.147 80.7699 477.433 80.1733C477.721 79.5734 478.122 79.1061 478.636 78.7713C479.153 78.4332 479.756 78.2642 480.445 78.2642C480.843 78.2642 481.236 78.3305 481.624 78.4631C482.011 78.5956 482.364 78.8111 482.683 79.1094C483.001 79.4044 483.254 79.7955 483.443 80.2827C483.632 80.7699 483.727 81.3698 483.727 82.0824V82.5795H477.84V81.5653H482.533C482.533 81.1345 482.447 80.75 482.275 80.4119C482.106 80.0739 481.864 79.8071 481.549 79.6115C481.237 79.416 480.87 79.3182 480.445 79.3182C479.978 79.3182 479.574 79.4342 479.232 79.6662C478.894 79.8949 478.634 80.1932 478.452 80.5611C478.269 80.929 478.178 81.3234 478.178 81.7443V82.4205C478.178 82.9972 478.278 83.486 478.477 83.8871C478.679 84.2848 478.959 84.5881 479.317 84.7969C479.675 85.0024 480.091 85.1051 480.565 85.1051C480.873 85.1051 481.151 85.062 481.4 84.9759C481.652 84.8864 481.869 84.7538 482.051 84.5781C482.233 84.3991 482.374 84.1771 482.474 83.9119L483.607 84.2301C483.488 84.6146 483.287 84.9527 483.006 85.2443C482.724 85.5327 482.376 85.758 481.962 85.9205C481.547 86.0795 481.082 86.1591 480.565 86.1591ZM491 75.8182L490.901 83.1364H489.747L489.648 75.8182H491ZM490.324 86.0795C490.079 86.0795 489.868 85.9917 489.692 85.8161C489.517 85.6404 489.429 85.4299 489.429 85.1847C489.429 84.9394 489.517 84.7289 489.692 84.5533C489.868 84.3776 490.079 84.2898 490.324 84.2898C490.569 84.2898 490.78 84.3776 490.955 84.5533C491.131 84.7289 491.219 84.9394 491.219 85.1847C491.219 85.3471 491.177 85.4962 491.094 85.6321C491.015 85.768 490.907 85.8774 490.771 85.9602C490.639 86.0398 490.49 86.0795 490.324 86.0795Z" fill="#54595E" fill-opacity="0.6"/>
</g>
<defs>
<filter id="filter0_dd_132_406" x="0.5" y="0.5" width="586" height="171" filterUnits="userSpaceOnUse" color-interpolation-filters="sRGB">
<feFlood flood-opacity="0" result="BackgroundImageFix"/>
<feColorMatrix in="SourceAlpha" type="matrix" values="0 0 0 0 0 0 0 0 0 0 0 0 0 0 0 0 0 0 127 0" result="hardAlpha"/>
<feOffset dy="20"/>
<feGaussianBlur stdDeviation="10"/>
<feColorMatrix type="matrix" values="0 0 0 0 0 0 0 0 0 0 0 0 0 0 0 0 0 0 0.08 0"/>
<feBlend mode="normal" in2="BackgroundImageFix" result="effect1_dropShadow_132_406"/>
<feColorMatrix in="SourceAlpha" type="matrix" values="0 0 0 0 0 0 0 0 0 0 0 0 0 0 0 0 0 0 127 0" result="hardAlpha"/>
<feOffset/>
<feGaussianBlur stdDeviation="1"/>
<feColorMatrix type="matrix" values="0 0 0 0 0 0 0 0 0 0 0 0 0 0 0 0 0 0 0.12 0"/>
<feBlend mode="normal" in2="effect1_dropShadow_132_406" result="effect2_dropShadow_132_406"/>
<feBlend mode="normal" in="SourceGraphic" in2="effect2_dropShadow_132_406" result="shape"/>
</filter>
</defs>
</svg>
