<svg width="587" height="172" viewBox="0 0 587 172" fill="none" xmlns="http://www.w3.org/2000/svg">
<g filter="url(#filter0_dd_132_406)">
<path d="M21 11C21 6.58172 24.5817 3 29 3H558C562.418 3 566 6.58172 566 11V123C566 127.418 562.418 131 558 131H29C24.5817 131 21 127.418 21 123V11Z" fill="white"/>
<path d="M21 11C21 6.58172 24.5817 3 29 3H558C562.418 3 566 6.58172 566 11V123C566 127.418 562.418 131 558 131H29C24.5817 131 21 127.418 21 123V11Z" stroke="#DEE2E6"/>
<rect x="61" y="39" width="56" height="56" rx="8" fill="#4845AE"/>
<rect x="61" y="39" width="56" height="56" rx="8" stroke="#4845AE" stroke-width="2"/>
<path d="M89 78.6666C92.2217 78.6666 95.1383 77.3607 97.2496 75.2495C99.3609 73.1382 100.667 70.2216 100.667 66.9999C100.667 63.7783 99.3609 60.8616 97.2496 58.7503C95.1383 56.6391 92.2217 55.3333 89 55.3333C85.7784 55.3333 82.8617 56.6391 80.7505 58.7503C78.6392 60.8616 77.3334 63.7783 77.3334 66.9999C77.3334 70.2216 78.6392 73.1382 80.7505 75.2495C82.8617 77.3607 85.7784 78.6666 89 78.6666Z" fill="#F5F5F5" fill-opacity="0.25"/>
<path d="M84.3334 67L87.8334 70.5L94.8334 63.5" stroke="#1B1A55" stroke-width="2" stroke-linecap="round" stroke-linejoin="round"/>
<path d="M150.339 47.4531C150.273 46.8329 149.994 46.3499 149.501 46.0043C149.014 45.6586 148.379 45.4858 147.598 45.4858C147.049 45.4858 146.578 45.5687 146.185 45.7344C145.792 45.9001 145.491 46.125 145.283 46.4091C145.074 46.6932 144.968 47.0175 144.963 47.3821C144.963 47.6851 145.032 47.9479 145.169 48.1705C145.311 48.393 145.503 48.5824 145.744 48.7386C145.986 48.8902 146.253 49.018 146.547 49.1222C146.84 49.2263 147.136 49.3139 147.435 49.3849L148.798 49.7259C149.348 49.8537 149.875 50.0265 150.382 50.2443C150.893 50.4621 151.35 50.7367 151.753 51.0682C152.16 51.3996 152.482 51.7997 152.719 52.2685C152.955 52.7372 153.074 53.2865 153.074 53.9162C153.074 54.7685 152.856 55.5189 152.42 56.1676C151.985 56.8116 151.355 57.3158 150.531 57.6804C149.712 58.0402 148.72 58.2202 147.555 58.2202C146.424 58.2202 145.441 58.045 144.608 57.6946C143.779 57.3442 143.131 56.8329 142.662 56.1605C142.198 55.4882 141.947 54.669 141.909 53.7031H144.501C144.539 54.2098 144.696 54.6312 144.97 54.9673C145.245 55.3035 145.602 55.5545 146.043 55.7202C146.488 55.8859 146.985 55.9688 147.534 55.9688C148.107 55.9688 148.609 55.8835 149.04 55.7131C149.475 55.5379 149.816 55.2964 150.062 54.9886C150.309 54.6761 150.434 54.3116 150.439 53.8949C150.434 53.5161 150.323 53.2036 150.105 52.9574C149.887 52.7064 149.582 52.4981 149.189 52.3324C148.801 52.1619 148.346 52.0104 147.825 51.8778L146.17 51.4517C144.973 51.1439 144.026 50.6776 143.33 50.0526C142.638 49.4228 142.293 48.5871 142.293 47.5455C142.293 46.6884 142.525 45.938 142.989 45.294C143.457 44.6501 144.094 44.1506 144.899 43.7955C145.704 43.4356 146.616 43.2557 147.634 43.2557C148.666 43.2557 149.57 43.4356 150.347 43.7955C151.128 44.1506 151.741 44.6454 152.186 45.2798C152.631 45.9096 152.861 46.634 152.875 47.4531H150.339ZM162.262 53.4119V47.0909H164.833V58H162.341V56.0611H162.227C161.981 56.6719 161.576 57.1714 161.012 57.5597C160.454 57.9479 159.765 58.142 158.946 58.142C158.231 58.142 157.599 57.9834 157.049 57.6662C156.505 57.3442 156.079 56.8778 155.771 56.267C155.463 55.6515 155.309 54.9081 155.309 54.0369V47.0909H157.88V53.6392C157.88 54.3305 158.07 54.8797 158.449 55.2869C158.827 55.6941 159.324 55.8977 159.94 55.8977C160.319 55.8977 160.686 55.8054 161.041 55.6207C161.396 55.4361 161.687 55.1615 161.914 54.7969C162.146 54.4276 162.262 53.9659 162.262 53.4119ZM172.236 58.2131C171.147 58.2131 170.212 57.974 169.43 57.4957C168.654 57.0175 168.055 56.357 167.634 55.5142C167.217 54.6667 167.009 53.6913 167.009 52.5881C167.009 51.4801 167.222 50.5024 167.648 49.6548C168.074 48.8026 168.675 48.1397 169.452 47.6662C170.233 47.188 171.156 46.9489 172.222 46.9489C173.107 46.9489 173.891 47.1122 174.572 47.4389C175.259 47.7609 175.806 48.2178 176.213 48.8097C176.62 49.3968 176.852 50.0833 176.909 50.8693H174.452C174.352 50.3437 174.116 49.9058 173.741 49.5554C173.372 49.2003 172.877 49.0227 172.257 49.0227C171.732 49.0227 171.27 49.1648 170.872 49.4489C170.474 49.7282 170.164 50.1307 169.942 50.6562C169.724 51.1818 169.615 51.8116 169.615 52.5455C169.615 53.2888 169.724 53.928 169.942 54.4631C170.16 54.9934 170.465 55.4029 170.858 55.6918C171.256 55.9759 171.722 56.1179 172.257 56.1179C172.636 56.1179 172.974 56.0469 173.273 55.9048C173.576 55.758 173.829 55.5473 174.033 55.2727C174.236 54.9981 174.376 54.6643 174.452 54.2713H176.909C176.848 55.0431 176.62 55.7273 176.227 56.3239C175.834 56.9157 175.299 57.3797 174.622 57.7159C173.945 58.0473 173.15 58.2131 172.236 58.2131ZM183.779 58.2131C182.69 58.2131 181.755 57.974 180.973 57.4957C180.197 57.0175 179.598 56.357 179.176 55.5142C178.76 54.6667 178.551 53.6913 178.551 52.5881C178.551 51.4801 178.765 50.5024 179.191 49.6548C179.617 48.8026 180.218 48.1397 180.995 47.6662C181.776 47.188 182.699 46.9489 183.765 46.9489C184.65 46.9489 185.434 47.1122 186.115 47.4389C186.802 47.7609 187.349 48.2178 187.756 48.8097C188.163 49.3968 188.395 50.0833 188.452 50.8693H185.995C185.895 50.3437 185.658 49.9058 185.284 49.5554C184.915 49.2003 184.42 49.0227 183.8 49.0227C183.275 49.0227 182.813 49.1648 182.415 49.4489C182.017 49.7282 181.707 50.1307 181.485 50.6562C181.267 51.1818 181.158 51.8116 181.158 52.5455C181.158 53.2888 181.267 53.928 181.485 54.4631C181.703 54.9934 182.008 55.4029 182.401 55.6918C182.799 55.9759 183.265 56.1179 183.8 56.1179C184.179 56.1179 184.517 56.0469 184.816 55.9048C185.119 55.758 185.372 55.5473 185.576 55.2727C185.779 54.9981 185.919 54.6643 185.995 54.2713H188.452C188.391 55.0431 188.163 55.7273 187.77 56.3239C187.377 56.9157 186.842 57.3797 186.165 57.7159C185.488 58.0473 184.693 58.2131 183.779 58.2131ZM195.393 58.2131C194.299 58.2131 193.354 57.9858 192.559 57.5312C191.768 57.072 191.16 56.4233 190.734 55.5852C190.308 54.7424 190.094 53.7505 190.094 52.6094C190.094 51.4872 190.308 50.5024 190.734 49.6548C191.165 48.8026 191.766 48.1397 192.538 47.6662C193.309 47.188 194.216 46.9489 195.258 46.9489C195.93 46.9489 196.565 47.0578 197.161 47.2756C197.763 47.4886 198.293 47.8201 198.752 48.2699C199.216 48.7197 199.581 49.2926 199.846 49.9886C200.111 50.6799 200.244 51.5038 200.244 52.4602V53.2486H191.302V51.5156H197.779C197.774 51.0232 197.668 50.5852 197.46 50.2017C197.251 49.8134 196.96 49.508 196.586 49.2855C196.217 49.063 195.786 48.9517 195.293 48.9517C194.768 48.9517 194.306 49.0795 193.908 49.3352C193.511 49.5862 193.201 49.9176 192.978 50.3295C192.76 50.7367 192.649 51.1842 192.644 51.6719V53.1847C192.644 53.8191 192.76 54.3636 192.992 54.8182C193.224 55.268 193.549 55.6136 193.965 55.8551C194.382 56.0919 194.87 56.2102 195.428 56.2102C195.802 56.2102 196.141 56.1581 196.444 56.054C196.747 55.9451 197.01 55.7865 197.232 55.5781C197.455 55.3698 197.623 55.1117 197.737 54.804L200.137 55.0739C199.986 55.7083 199.697 56.2623 199.271 56.7358C198.849 57.2045 198.309 57.5691 197.651 57.8295C196.993 58.0852 196.24 58.2131 195.393 58.2131ZM211.041 49.9744L208.697 50.2301C208.631 49.9934 208.515 49.7708 208.349 49.5625C208.188 49.3542 207.97 49.1861 207.696 49.0582C207.421 48.9304 207.085 48.8665 206.687 48.8665C206.152 48.8665 205.702 48.9825 205.338 49.2145C204.978 49.4465 204.8 49.7472 204.805 50.1165C204.8 50.4337 204.916 50.6918 205.153 50.8906C205.395 51.0895 205.792 51.2528 206.346 51.3807L208.207 51.7784C209.239 52.0009 210.006 52.3537 210.508 52.8366C211.015 53.3196 211.27 53.9517 211.275 54.733C211.27 55.4195 211.069 56.0256 210.672 56.5511C210.279 57.072 209.732 57.4792 209.031 57.7727C208.33 58.0663 207.525 58.2131 206.616 58.2131C205.281 58.2131 204.206 57.9337 203.392 57.375C202.577 56.8116 202.092 56.0279 201.936 55.0241L204.443 54.7827C204.556 55.2751 204.798 55.6468 205.167 55.8977C205.537 56.1487 206.017 56.2741 206.609 56.2741C207.22 56.2741 207.71 56.1487 208.079 55.8977C208.453 55.6468 208.64 55.3366 208.64 54.9673C208.64 54.6548 208.52 54.3968 208.278 54.1932C208.041 53.9896 207.672 53.8333 207.17 53.7244L205.309 53.3338C204.263 53.116 203.489 52.7491 202.987 52.233C202.485 51.7121 202.236 51.054 202.241 50.2585C202.236 49.5862 202.419 49.0038 202.788 48.5114C203.162 48.0142 203.681 47.6307 204.343 47.3608C205.011 47.0862 205.78 46.9489 206.652 46.9489C207.93 46.9489 208.936 47.2211 209.67 47.7656C210.409 48.3101 210.866 49.0464 211.041 49.9744ZM222.017 49.9744L219.674 50.2301C219.607 49.9934 219.491 49.7708 219.326 49.5625C219.165 49.3542 218.947 49.1861 218.672 49.0582C218.398 48.9304 218.061 48.8665 217.664 48.8665C217.129 48.8665 216.679 48.9825 216.314 49.2145C215.954 49.4465 215.777 49.7472 215.782 50.1165C215.777 50.4337 215.893 50.6918 216.13 50.8906C216.371 51.0895 216.769 51.2528 217.323 51.3807L219.184 51.7784C220.216 52.0009 220.983 52.3537 221.485 52.8366C221.991 53.3196 222.247 53.9517 222.252 54.733C222.247 55.4195 222.046 56.0256 221.648 56.5511C221.255 57.072 220.708 57.4792 220.007 57.7727C219.307 58.0663 218.502 58.2131 217.593 58.2131C216.257 58.2131 215.183 57.9337 214.368 57.375C213.554 56.8116 213.069 56.0279 212.912 55.0241L215.419 54.7827C215.533 55.2751 215.775 55.6468 216.144 55.8977C216.513 56.1487 216.994 56.2741 217.586 56.2741C218.196 56.2741 218.686 56.1487 219.056 55.8977C219.43 55.6468 219.617 55.3366 219.617 54.9673C219.617 54.6548 219.496 54.3968 219.255 54.1932C219.018 53.9896 218.649 53.8333 218.147 53.7244L216.286 53.3338C215.239 53.116 214.465 52.7491 213.963 52.233C213.462 51.7121 213.213 51.054 213.218 50.2585C213.213 49.5862 213.395 49.0038 213.765 48.5114C214.139 48.0142 214.657 47.6307 215.32 47.3608C215.988 47.0862 216.757 46.9489 217.628 46.9489C218.907 46.9489 219.913 47.2211 220.647 47.7656C221.385 48.3101 221.842 49.0464 222.017 49.9744ZM229.897 47.0909V49.0795H223.449V47.0909H229.897ZM225.061 58V46.0611C225.061 45.3272 225.212 44.7164 225.515 44.2287C225.823 43.741 226.235 43.3764 226.751 43.1349C227.267 42.8935 227.84 42.7727 228.47 42.7727C228.915 42.7727 229.31 42.8082 229.656 42.8793C230.002 42.9503 230.257 43.0142 230.423 43.071L229.912 45.0597C229.803 45.0265 229.665 44.9934 229.5 44.9602C229.334 44.9223 229.149 44.9034 228.946 44.9034C228.467 44.9034 228.129 45.0194 227.93 45.2514C227.736 45.4787 227.639 45.8054 227.639 46.2315V58H225.061ZM238.864 53.4119V47.0909H241.435V58H238.942V56.0611H238.828C238.582 56.6719 238.177 57.1714 237.614 57.5597C237.055 57.9479 236.366 58.142 235.547 58.142C234.832 58.142 234.2 57.9834 233.651 57.6662C233.106 57.3442 232.68 56.8778 232.373 56.267C232.065 55.6515 231.911 54.9081 231.911 54.0369V47.0909H234.482V53.6392C234.482 54.3305 234.671 54.8797 235.05 55.2869C235.429 55.6941 235.926 55.8977 236.542 55.8977C236.92 55.8977 237.287 55.8054 237.642 55.6207C237.998 55.4361 238.289 55.1615 238.516 54.7969C238.748 54.4276 238.864 53.9659 238.864 53.4119ZM246.65 43.4545V58H244.079V43.4545H246.65ZM251.865 43.4545V58H249.294V43.4545H251.865ZM256.107 62.0909C255.756 62.0909 255.432 62.0625 255.134 62.0057C254.84 61.9536 254.606 61.892 254.43 61.821L255.027 59.8182C255.401 59.9271 255.735 59.9792 256.028 59.9744C256.322 59.9697 256.58 59.8774 256.803 59.6974C257.03 59.5223 257.222 59.2287 257.378 58.8168L257.598 58.2273L253.642 47.0909H256.369L258.884 55.3295H258.997L261.518 47.0909H264.253L259.885 59.321C259.681 59.8987 259.411 60.3935 259.075 60.8054C258.739 61.2221 258.327 61.5393 257.839 61.7571C257.357 61.9796 256.779 62.0909 256.107 62.0909ZM279.011 47.4531C278.945 46.8329 278.666 46.3499 278.173 46.0043C277.686 45.6586 277.051 45.4858 276.27 45.4858C275.721 45.4858 275.25 45.5687 274.857 45.7344C274.464 45.9001 274.163 46.125 273.955 46.4091C273.746 46.6932 273.64 47.0175 273.635 47.3821C273.635 47.6851 273.704 47.9479 273.841 48.1705C273.983 48.393 274.175 48.5824 274.416 48.7386C274.658 48.8902 274.925 49.018 275.219 49.1222C275.512 49.2263 275.808 49.3139 276.107 49.3849L277.47 49.7259C278.019 49.8537 278.547 50.0265 279.054 50.2443C279.565 50.4621 280.022 50.7367 280.425 51.0682C280.832 51.3996 281.154 51.7997 281.391 52.2685C281.627 52.7372 281.746 53.2865 281.746 53.9162C281.746 54.7685 281.528 55.5189 281.092 56.1676C280.657 56.8116 280.027 57.3158 279.203 57.6804C278.384 58.0402 277.392 58.2202 276.227 58.2202C275.096 58.2202 274.113 58.045 273.28 57.6946C272.451 57.3442 271.803 56.8329 271.334 56.1605C270.87 55.4882 270.619 54.669 270.581 53.7031H273.173C273.211 54.2098 273.367 54.6312 273.642 54.9673C273.917 55.3035 274.274 55.5545 274.714 55.7202C275.16 55.8859 275.657 55.9688 276.206 55.9688C276.779 55.9688 277.281 55.8835 277.712 55.7131C278.147 55.5379 278.488 55.2964 278.734 54.9886C278.981 54.6761 279.106 54.3116 279.111 53.8949C279.106 53.5161 278.995 53.2036 278.777 52.9574C278.559 52.7064 278.254 52.4981 277.861 52.3324C277.473 52.1619 277.018 52.0104 276.497 51.8778L274.842 51.4517C273.644 51.1439 272.697 50.6776 272.001 50.0526C271.31 49.4228 270.964 48.5871 270.964 47.5455C270.964 46.6884 271.196 45.938 271.661 45.294C272.129 44.6501 272.766 44.1506 273.571 43.7955C274.376 43.4356 275.287 43.2557 276.305 43.2557C277.338 43.2557 278.242 43.4356 279.018 43.7955C279.8 44.1506 280.413 44.6454 280.858 45.2798C281.303 45.9096 281.533 46.634 281.547 47.4531H279.011ZM283.981 58V47.0909H286.552V58H283.981ZM285.274 45.5426C284.867 45.5426 284.516 45.4077 284.223 45.1378C283.929 44.8632 283.782 44.5341 283.782 44.1506C283.782 43.7623 283.929 43.4332 284.223 43.1634C284.516 42.8887 284.867 42.7514 285.274 42.7514C285.686 42.7514 286.036 42.8887 286.325 43.1634C286.618 43.4332 286.765 43.7623 286.765 44.1506C286.765 44.5341 286.618 44.8632 286.325 45.1378C286.036 45.4077 285.686 45.5426 285.274 45.5426ZM293.94 62.3182C293.017 62.3182 292.224 62.1927 291.561 61.9418C290.898 61.6955 290.366 61.3641 289.963 60.9474C289.561 60.5308 289.281 60.0691 289.125 59.5625L291.44 59.0014C291.545 59.2145 291.696 59.4252 291.895 59.6335C292.094 59.8466 292.361 60.0218 292.697 60.1591C293.038 60.3011 293.467 60.3722 293.983 60.3722C294.712 60.3722 295.316 60.1946 295.794 59.8395C296.272 59.4891 296.511 58.9115 296.511 58.1065V56.0398H296.384C296.251 56.3049 296.057 56.5772 295.801 56.8565C295.55 57.1359 295.216 57.3703 294.8 57.5597C294.388 57.7491 293.869 57.8438 293.244 57.8438C292.406 57.8438 291.646 57.6473 290.964 57.2543C290.287 56.8565 289.748 56.2647 289.345 55.4787C288.947 54.688 288.749 53.6984 288.749 52.5099C288.749 51.312 288.947 50.3011 289.345 49.4773C289.748 48.6487 290.29 48.0213 290.972 47.5952C291.653 47.1643 292.413 46.9489 293.251 46.9489C293.891 46.9489 294.416 47.0578 294.828 47.2756C295.245 47.4886 295.576 47.7467 295.822 48.0497C296.069 48.348 296.256 48.6297 296.384 48.8949H296.526V47.0909H299.061V58.1776C299.061 59.1103 298.839 59.8821 298.393 60.4929C297.948 61.1037 297.34 61.5606 296.568 61.8636C295.796 62.1667 294.92 62.3182 293.94 62.3182ZM293.962 55.8267C294.506 55.8267 294.97 55.6941 295.354 55.429C295.737 55.1638 296.028 54.7827 296.227 54.2855C296.426 53.7884 296.526 53.1918 296.526 52.4957C296.526 51.8092 296.426 51.2079 296.227 50.6918C296.033 50.1757 295.744 49.7756 295.361 49.4915C294.982 49.2027 294.516 49.0582 293.962 49.0582C293.389 49.0582 292.911 49.2074 292.527 49.5057C292.143 49.804 291.855 50.2135 291.661 50.7344C291.466 51.2505 291.369 51.8376 291.369 52.4957C291.369 53.1634 291.466 53.7481 291.661 54.25C291.859 54.7472 292.151 55.1354 292.534 55.4148C292.922 55.6894 293.398 55.8267 293.962 55.8267ZM304.267 51.608V58H301.696V47.0909H304.153V48.9446H304.281C304.532 48.3338 304.932 47.8485 305.482 47.4886C306.036 47.1288 306.72 46.9489 307.534 46.9489C308.287 46.9489 308.943 47.1098 309.501 47.4318C310.065 47.7538 310.5 48.2202 310.808 48.831C311.121 49.4418 311.275 50.1828 311.27 51.054V58H308.699V51.4517C308.699 50.7225 308.509 50.152 308.131 49.7401C307.757 49.3281 307.238 49.1222 306.575 49.1222C306.125 49.1222 305.725 49.2216 305.375 49.4205C305.029 49.6146 304.757 49.8963 304.558 50.2656C304.364 50.6349 304.267 51.0824 304.267 51.608ZM318.713 58.2131C317.619 58.2131 316.675 57.9858 315.879 57.5312C315.089 57.072 314.48 56.4233 314.054 55.5852C313.628 54.7424 313.415 53.7505 313.415 52.6094C313.415 51.4872 313.628 50.5024 314.054 49.6548C314.485 48.8026 315.086 48.1397 315.858 47.6662C316.63 47.188 317.536 46.9489 318.578 46.9489C319.25 46.9489 319.885 47.0578 320.482 47.2756C321.083 47.4886 321.613 47.8201 322.072 48.2699C322.536 48.7197 322.901 49.2926 323.166 49.9886C323.431 50.6799 323.564 51.5038 323.564 52.4602V53.2486H314.622V51.5156H321.099C321.095 51.0232 320.988 50.5852 320.78 50.2017C320.571 49.8134 320.28 49.508 319.906 49.2855C319.537 49.063 319.106 48.9517 318.614 48.9517C318.088 48.9517 317.626 49.0795 317.229 49.3352C316.831 49.5862 316.521 49.9176 316.298 50.3295C316.08 50.7367 315.969 51.1842 315.964 51.6719V53.1847C315.964 53.8191 316.08 54.3636 316.312 54.8182C316.545 55.268 316.869 55.6136 317.286 55.8551C317.702 56.0919 318.19 56.2102 318.749 56.2102C319.123 56.2102 319.461 56.1581 319.764 56.054C320.067 55.9451 320.33 55.7865 320.553 55.5781C320.775 55.3698 320.943 55.1117 321.057 54.804L323.457 55.0739C323.306 55.7083 323.017 56.2623 322.591 56.7358C322.17 57.2045 321.63 57.5691 320.972 57.8295C320.313 58.0852 319.561 58.2131 318.713 58.2131ZM329.787 58.1918C328.93 58.1918 328.163 57.9716 327.486 57.5312C326.809 57.0909 326.274 56.4517 325.881 55.6136C325.488 54.7756 325.292 53.7576 325.292 52.5597C325.292 51.3475 325.49 50.3248 325.888 49.4915C326.291 48.6534 326.833 48.0213 327.515 47.5952C328.196 47.1643 328.956 46.9489 329.794 46.9489C330.434 46.9489 330.959 47.0578 331.371 47.2756C331.783 47.4886 332.11 47.7467 332.351 48.0497C332.593 48.348 332.78 48.6297 332.912 48.8949H333.019V43.4545H335.597V58H333.069V56.2812H332.912C332.78 56.5464 332.588 56.8281 332.337 57.1264C332.086 57.42 331.755 57.6709 331.343 57.8793C330.931 58.0876 330.412 58.1918 329.787 58.1918ZM330.505 56.0824C331.049 56.0824 331.513 55.9356 331.897 55.642C332.28 55.3437 332.571 54.9295 332.77 54.3991C332.969 53.8688 333.069 53.2509 333.069 52.5455C333.069 51.84 332.969 51.2268 332.77 50.706C332.576 50.1851 332.287 49.7803 331.904 49.4915C331.525 49.2027 331.059 49.0582 330.505 49.0582C329.932 49.0582 329.453 49.2074 329.07 49.5057C328.686 49.804 328.398 50.2159 328.203 50.7415C328.009 51.267 327.912 51.8684 327.912 52.5455C327.912 53.2273 328.009 53.8357 328.203 54.3707C328.402 54.901 328.694 55.3201 329.077 55.6278C329.465 55.9309 329.941 56.0824 330.505 56.0824ZM352.58 43.4545H355.215V52.9574C355.215 53.9991 354.969 54.9152 354.477 55.706C353.989 56.4967 353.302 57.1146 352.417 57.5597C351.531 58 350.497 58.2202 349.313 58.2202C348.125 58.2202 347.088 58 346.202 57.5597C345.317 57.1146 344.63 56.4967 344.143 55.706C343.655 54.9152 343.411 53.9991 343.411 52.9574V43.4545H346.046V52.7372C346.046 53.3433 346.179 53.883 346.444 54.3565C346.714 54.83 347.093 55.2017 347.58 55.4716C348.068 55.7367 348.646 55.8693 349.313 55.8693C349.981 55.8693 350.558 55.7367 351.046 55.4716C351.539 55.2017 351.917 54.83 352.183 54.3565C352.448 53.883 352.58 53.3433 352.58 52.7372V43.4545ZM357.966 62.0909V47.0909H360.494V48.8949H360.643C360.776 48.6297 360.963 48.348 361.204 48.0497C361.446 47.7467 361.772 47.4886 362.184 47.2756C362.596 47.0578 363.122 46.9489 363.761 46.9489C364.604 46.9489 365.364 47.1643 366.041 47.5952C366.723 48.0213 367.262 48.6534 367.66 49.4915C368.063 50.3248 368.264 51.3475 368.264 52.5597C368.264 53.7576 368.067 54.7756 367.674 55.6136C367.281 56.4517 366.746 57.0909 366.069 57.5312C365.392 57.9716 364.625 58.1918 363.768 58.1918C363.143 58.1918 362.625 58.0876 362.213 57.8793C361.801 57.6709 361.469 57.42 361.218 57.1264C360.972 56.8281 360.78 56.5464 360.643 56.2812H360.537V62.0909H357.966ZM360.487 52.5455C360.487 53.2509 360.586 53.8688 360.785 54.3991C360.989 54.9295 361.28 55.3437 361.659 55.642C362.042 55.9356 362.506 56.0824 363.051 56.0824C363.619 56.0824 364.095 55.9309 364.478 55.6278C364.862 55.3201 365.151 54.901 365.345 54.3707C365.544 53.8357 365.643 53.2273 365.643 52.5455C365.643 51.8684 365.546 51.267 365.352 50.7415C365.158 50.2159 364.869 49.804 364.485 49.5057C364.102 49.2074 363.624 49.0582 363.051 49.0582C362.502 49.0582 362.035 49.2027 361.652 49.4915C361.268 49.7803 360.977 50.1851 360.778 50.706C360.584 51.2268 360.487 51.84 360.487 52.5455ZM378.573 43.4545L378.338 53.7244H376.051L375.824 43.4545H378.573ZM377.195 58.1562C376.764 58.1562 376.395 58.0047 376.087 57.7017C375.784 57.3987 375.632 57.0294 375.632 56.5938C375.632 56.1676 375.784 55.803 376.087 55.5C376.395 55.197 376.764 55.0455 377.195 55.0455C377.616 55.0455 377.981 55.197 378.289 55.5C378.601 55.803 378.757 56.1676 378.757 56.5938C378.757 56.8826 378.684 57.1454 378.537 57.3821C378.395 57.6188 378.206 57.8082 377.969 57.9503C377.737 58.0876 377.479 58.1562 377.195 58.1562Z" fill="#4845AE"/>
<path d="M141.358 75.8182H142.77L145.594 80.571H145.713L148.537 75.8182H149.949L146.27 81.804V86H145.037V81.804L141.358 75.8182ZM153.407 86.1591C152.717 86.1591 152.112 85.995 151.592 85.6669C151.075 85.3388 150.671 84.8797 150.379 84.2898C150.091 83.6998 149.946 83.0104 149.946 82.2216C149.946 81.4261 150.091 80.7318 150.379 80.1385C150.671 79.5452 151.075 79.0845 151.592 78.7564C152.112 78.4283 152.717 78.2642 153.407 78.2642C154.096 78.2642 154.699 78.4283 155.216 78.7564C155.737 79.0845 156.141 79.5452 156.429 80.1385C156.721 80.7318 156.867 81.4261 156.867 82.2216C156.867 83.0104 156.721 83.6998 156.429 84.2898C156.141 84.8797 155.737 85.3388 155.216 85.6669C154.699 85.995 154.096 86.1591 153.407 86.1591ZM153.407 85.1051C153.93 85.1051 154.361 84.9709 154.699 84.7024C155.037 84.4339 155.288 84.081 155.45 83.6435C155.612 83.206 155.694 82.732 155.694 82.2216C155.694 81.7112 155.612 81.2356 155.45 80.7947C155.288 80.3539 155.037 79.9976 154.699 79.7259C154.361 79.4541 153.93 79.3182 153.407 79.3182C152.883 79.3182 152.452 79.4541 152.114 79.7259C151.776 79.9976 151.526 80.3539 151.363 80.7947C151.201 81.2356 151.12 81.7112 151.12 82.2216C151.12 82.732 151.201 83.206 151.363 83.6435C151.526 84.081 151.776 84.4339 152.114 84.7024C152.452 84.9709 152.883 85.1051 153.407 85.1051ZM163.47 82.8778V78.3636H164.644V86H163.47V84.7074H163.391C163.212 85.0952 162.933 85.425 162.556 85.6967C162.178 85.9652 161.7 86.0994 161.124 86.0994C160.646 86.0994 160.222 85.995 159.851 85.7862C159.48 85.5741 159.188 85.2559 158.976 84.8317C158.764 84.4041 158.658 83.8655 158.658 83.2159V78.3636H159.831V83.1364C159.831 83.6932 159.987 84.1373 160.298 84.4688C160.613 84.8002 161.014 84.9659 161.502 84.9659C161.793 84.9659 162.09 84.8913 162.392 84.7422C162.696 84.593 162.952 84.3643 163.157 84.0561C163.366 83.7479 163.47 83.3551 163.47 82.8778ZM168.032 75.8182V76.7131C168.032 76.9848 167.982 77.2749 167.883 77.5831C167.787 77.888 167.644 78.1847 167.455 78.473C167.269 78.758 167.044 79.0066 166.779 79.2188L166.143 78.7017C166.351 78.4034 166.532 78.0935 166.684 77.772C166.84 77.4472 166.918 77.1009 166.918 76.733V75.8182H168.032ZM176.031 78.3636L173.207 86H172.014L169.19 78.3636H170.463L172.571 84.4489H172.65L174.758 78.3636H176.031ZM180.508 86.1591C179.772 86.1591 179.137 85.9967 178.604 85.6719C178.074 85.3438 177.664 84.8864 177.376 84.2997C177.091 83.7098 176.948 83.0237 176.948 82.2415C176.948 81.4593 177.091 80.7699 177.376 80.1733C177.664 79.5734 178.065 79.1061 178.579 78.7713C179.096 78.4332 179.699 78.2642 180.389 78.2642C180.786 78.2642 181.179 78.3305 181.567 78.4631C181.955 78.5956 182.308 78.8111 182.626 79.1094C182.944 79.4044 183.198 79.7955 183.387 80.2827C183.575 80.7699 183.67 81.3698 183.67 82.0824V82.5795H177.784V81.5653H182.477C182.477 81.1345 182.391 80.75 182.218 80.4119C182.049 80.0739 181.807 79.8071 181.492 79.6115C181.181 79.416 180.813 79.3182 180.389 79.3182C179.921 79.3182 179.517 79.4342 179.176 79.6662C178.838 79.8949 178.577 80.1932 178.395 80.5611C178.213 80.929 178.122 81.3234 178.122 81.7443V82.4205C178.122 82.9972 178.221 83.486 178.42 83.8871C178.622 84.2848 178.902 84.5881 179.26 84.7969C179.618 85.0024 180.034 85.1051 180.508 85.1051C180.816 85.1051 181.095 85.062 181.343 84.9759C181.595 84.8864 181.812 84.7538 181.994 84.5781C182.177 84.3991 182.318 84.1771 182.417 83.9119L183.551 84.2301C183.431 84.6146 183.231 84.9527 182.949 85.2443C182.667 85.5327 182.319 85.758 181.905 85.9205C181.491 86.0795 181.025 86.1591 180.508 86.1591ZM194.801 80.0739L193.747 80.3722C193.681 80.1965 193.583 80.0258 193.454 79.8601C193.328 79.6911 193.156 79.5518 192.937 79.4425C192.718 79.3331 192.438 79.2784 192.097 79.2784C191.629 79.2784 191.24 79.3861 190.928 79.6016C190.62 79.8137 190.466 80.0838 190.466 80.4119C190.466 80.7036 190.572 80.9339 190.784 81.103C190.996 81.272 191.328 81.4129 191.779 81.5256L192.912 81.804C193.595 81.9697 194.104 82.2232 194.438 82.5646C194.773 82.9027 194.941 83.3385 194.941 83.8722C194.941 84.3097 194.815 84.7008 194.563 85.0455C194.314 85.3902 193.966 85.6619 193.519 85.8608C193.071 86.0597 192.551 86.1591 191.958 86.1591C191.179 86.1591 190.534 85.9901 190.024 85.652C189.513 85.3139 189.19 84.8201 189.054 84.1705L190.168 83.892C190.274 84.303 190.474 84.6113 190.769 84.8168C191.068 85.0223 191.457 85.125 191.938 85.125C192.485 85.125 192.919 85.009 193.24 84.777C193.565 84.5417 193.727 84.2599 193.727 83.9318C193.727 83.6667 193.635 83.4446 193.449 83.2656C193.263 83.0833 192.978 82.9474 192.594 82.858L191.321 82.5597C190.622 82.3939 190.108 82.1371 189.78 81.7891C189.455 81.4377 189.293 80.9986 189.293 80.4716C189.293 80.0407 189.414 79.6596 189.656 79.3281C189.901 78.9967 190.234 78.7365 190.655 78.5476C191.079 78.3587 191.56 78.2642 192.097 78.2642C192.852 78.2642 193.446 78.4299 193.877 78.7614C194.311 79.0928 194.619 79.5303 194.801 80.0739ZM201.519 82.8778V78.3636H202.692V86H201.519V84.7074H201.44C201.261 85.0952 200.982 85.425 200.604 85.6967C200.227 85.9652 199.749 86.0994 199.173 86.0994C198.695 86.0994 198.271 85.995 197.9 85.7862C197.529 85.5741 197.237 85.2559 197.025 84.8317C196.813 84.4041 196.707 83.8655 196.707 83.2159V78.3636H197.88V83.1364C197.88 83.6932 198.036 84.1373 198.347 84.4688C198.662 84.8002 199.063 84.9659 199.55 84.9659C199.842 84.9659 200.139 84.8913 200.44 84.7422C200.745 84.593 201 84.3643 201.206 84.0561C201.415 83.7479 201.519 83.3551 201.519 82.8778ZM207.944 86.1591C207.228 86.1591 206.611 85.9901 206.094 85.652C205.577 85.3139 205.18 84.8482 204.901 84.255C204.623 83.6617 204.483 82.9839 204.483 82.2216C204.483 81.446 204.626 80.7616 204.911 80.1683C205.199 79.5717 205.6 79.1061 206.114 78.7713C206.631 78.4332 207.234 78.2642 207.924 78.2642C208.461 78.2642 208.945 78.3636 209.376 78.5625C209.806 78.7614 210.159 79.0398 210.434 79.3977C210.71 79.7557 210.88 80.1733 210.947 80.6506H209.773C209.684 80.3026 209.485 79.9943 209.177 79.7259C208.872 79.4541 208.461 79.3182 207.944 79.3182C207.486 79.3182 207.085 79.4375 206.741 79.6761C206.399 79.9115 206.132 80.2446 205.94 80.6754C205.751 81.103 205.657 81.6051 205.657 82.1818C205.657 82.7718 205.75 83.2855 205.935 83.723C206.124 84.1605 206.389 84.5002 206.731 84.7422C207.075 84.9841 207.48 85.1051 207.944 85.1051C208.249 85.1051 208.525 85.0521 208.774 84.946C209.023 84.84 209.233 84.6875 209.405 84.4886C209.578 84.2898 209.7 84.0511 209.773 83.7727H210.947C210.88 84.2235 210.716 84.6295 210.454 84.9908C210.196 85.3487 209.853 85.6338 209.425 85.8459C209.001 86.0547 208.507 86.1591 207.944 86.1591ZM215.764 86.1591C215.048 86.1591 214.432 85.9901 213.915 85.652C213.398 85.3139 213 84.8482 212.721 84.255C212.443 83.6617 212.304 82.9839 212.304 82.2216C212.304 81.446 212.446 80.7616 212.731 80.1683C213.02 79.5717 213.421 79.1061 213.934 78.7713C214.452 78.4332 215.055 78.2642 215.744 78.2642C216.281 78.2642 216.765 78.3636 217.196 78.5625C217.627 78.7614 217.98 79.0398 218.255 79.3977C218.53 79.7557 218.701 80.1733 218.767 80.6506H217.594C217.504 80.3026 217.305 79.9943 216.997 79.7259C216.692 79.4541 216.281 79.3182 215.764 79.3182C215.307 79.3182 214.906 79.4375 214.561 79.6761C214.22 79.9115 213.953 80.2446 213.76 80.6754C213.572 81.103 213.477 81.6051 213.477 82.1818C213.477 82.7718 213.57 83.2855 213.756 83.723C213.944 84.1605 214.21 84.5002 214.551 84.7422C214.896 84.9841 215.3 85.1051 215.764 85.1051C216.069 85.1051 216.346 85.0521 216.594 84.946C216.843 84.84 217.053 84.6875 217.226 84.4886C217.398 84.2898 217.521 84.0511 217.594 83.7727H218.767C218.701 84.2235 218.537 84.6295 218.275 84.9908C218.016 85.3487 217.673 85.6338 217.246 85.8459C216.821 86.0547 216.327 86.1591 215.764 86.1591ZM223.684 86.1591C222.948 86.1591 222.313 85.9967 221.78 85.6719C221.249 85.3438 220.84 84.8864 220.552 84.2997C220.267 83.7098 220.124 83.0237 220.124 82.2415C220.124 81.4593 220.267 80.7699 220.552 80.1733C220.84 79.5734 221.241 79.1061 221.755 78.7713C222.272 78.4332 222.875 78.2642 223.564 78.2642C223.962 78.2642 224.355 78.3305 224.743 78.4631C225.131 78.5956 225.483 78.8111 225.802 79.1094C226.12 79.4044 226.373 79.7955 226.562 80.2827C226.751 80.7699 226.846 81.3698 226.846 82.0824V82.5795H220.959V81.5653H225.653C225.653 81.1345 225.566 80.75 225.394 80.4119C225.225 80.0739 224.983 79.8071 224.668 79.6115C224.357 79.416 223.989 79.3182 223.564 79.3182C223.097 79.3182 222.693 79.4342 222.351 79.6662C222.013 79.8949 221.753 80.1932 221.571 80.5611C221.389 80.929 221.297 81.3234 221.297 81.7443V82.4205C221.297 82.9972 221.397 83.486 221.596 83.8871C221.798 84.2848 222.078 84.5881 222.436 84.7969C222.794 85.0024 223.21 85.1051 223.684 85.1051C223.992 85.1051 224.27 85.062 224.519 84.9759C224.771 84.8864 224.988 84.7538 225.17 84.5781C225.353 84.3991 225.493 84.1771 225.593 83.9119L226.726 84.2301C226.607 84.6146 226.407 84.9527 226.125 85.2443C225.843 85.5327 225.495 85.758 225.081 85.9205C224.666 86.0795 224.201 86.1591 223.684 86.1591ZM234.04 80.0739L232.986 80.3722C232.919 80.1965 232.822 80.0258 232.692 79.8601C232.566 79.6911 232.394 79.5518 232.175 79.4425C231.956 79.3331 231.676 79.2784 231.335 79.2784C230.868 79.2784 230.478 79.3861 230.167 79.6016C229.858 79.8137 229.704 80.0838 229.704 80.4119C229.704 80.7036 229.81 80.9339 230.023 81.103C230.235 81.272 230.566 81.4129 231.017 81.5256L232.15 81.804C232.833 81.9697 233.342 82.2232 233.677 82.5646C234.011 82.9027 234.179 83.3385 234.179 83.8722C234.179 84.3097 234.053 84.7008 233.801 85.0455C233.552 85.3902 233.204 85.6619 232.757 85.8608C232.309 86.0597 231.789 86.1591 231.196 86.1591C230.417 86.1591 229.772 85.9901 229.262 85.652C228.751 85.3139 228.428 84.8201 228.292 84.1705L229.406 83.892C229.512 84.303 229.713 84.6113 230.008 84.8168C230.306 85.0223 230.695 85.125 231.176 85.125C231.723 85.125 232.157 85.009 232.479 84.777C232.803 84.5417 232.966 84.2599 232.966 83.9318C232.966 83.6667 232.873 83.4446 232.687 83.2656C232.502 83.0833 232.217 82.9474 231.832 82.858L230.559 82.5597C229.86 82.3939 229.346 82.1371 229.018 81.7891C228.693 81.4377 228.531 80.9986 228.531 80.4716C228.531 80.0407 228.652 79.6596 228.894 79.3281C229.139 78.9967 229.472 78.7365 229.893 78.5476C230.318 78.3587 230.798 78.2642 231.335 78.2642C232.091 78.2642 232.684 78.4299 233.115 78.7614C233.549 79.0928 233.857 79.5303 234.04 80.0739ZM241.354 80.0739L240.3 80.3722C240.234 80.1965 240.136 80.0258 240.007 79.8601C239.881 79.6911 239.708 79.5518 239.49 79.4425C239.271 79.3331 238.991 79.2784 238.65 79.2784C238.182 79.2784 237.793 79.3861 237.481 79.6016C237.173 79.8137 237.019 80.0838 237.019 80.4119C237.019 80.7036 237.125 80.9339 237.337 81.103C237.549 81.272 237.881 81.4129 238.331 81.5256L239.465 81.804C240.148 81.9697 240.656 82.2232 240.991 82.5646C241.326 82.9027 241.493 83.3385 241.493 83.8722C241.493 84.3097 241.367 84.7008 241.115 85.0455C240.867 85.3902 240.519 85.6619 240.071 85.8608C239.624 86.0597 239.104 86.1591 238.51 86.1591C237.731 86.1591 237.087 85.9901 236.576 85.652C236.066 85.3139 235.743 84.8201 235.607 84.1705L236.721 83.892C236.827 84.303 237.027 84.6113 237.322 84.8168C237.62 85.0223 238.01 85.125 238.49 85.125C239.037 85.125 239.471 85.009 239.793 84.777C240.118 84.5417 240.28 84.2599 240.28 83.9318C240.28 83.6667 240.187 83.4446 240.002 83.2656C239.816 83.0833 239.531 82.9474 239.147 82.858L237.874 82.5597C237.175 82.3939 236.661 82.1371 236.333 81.7891C236.008 81.4377 235.846 80.9986 235.846 80.4716C235.846 80.0407 235.967 79.6596 236.208 79.3281C236.454 78.9967 236.787 78.7365 237.208 78.5476C237.632 78.3587 238.113 78.2642 238.65 78.2642C239.405 78.2642 239.998 78.4299 240.429 78.7614C240.864 79.0928 241.172 79.5303 241.354 80.0739ZM246.66 78.3636V79.358H242.544V78.3636H246.66ZM243.776 86V77.3097C243.776 76.8722 243.879 76.5076 244.085 76.2159C244.29 75.9242 244.557 75.7055 244.885 75.5597C245.213 75.4138 245.56 75.3409 245.924 75.3409C246.213 75.3409 246.448 75.3641 246.63 75.4105C246.812 75.4569 246.948 75.5 247.038 75.5398L246.7 76.554C246.64 76.5341 246.557 76.5092 246.451 76.4794C246.348 76.4496 246.213 76.4347 246.044 76.4347C245.656 76.4347 245.376 76.5324 245.203 76.728C245.034 76.9235 244.95 77.2102 244.95 77.5881V86H243.776ZM253.117 82.8778V78.3636H254.29V86H253.117V84.7074H253.037C252.858 85.0952 252.58 85.425 252.202 85.6967C251.824 85.9652 251.347 86.0994 250.77 86.0994C250.293 86.0994 249.869 85.995 249.498 85.7862C249.126 85.5741 248.835 85.2559 248.623 84.8317C248.41 84.4041 248.304 83.8655 248.304 83.2159V78.3636H249.478V83.1364C249.478 83.6932 249.633 84.1373 249.945 84.4688C250.26 84.8002 250.661 84.9659 251.148 84.9659C251.44 84.9659 251.736 84.8913 252.038 84.7422C252.343 84.593 252.598 84.3643 252.804 84.0561C253.012 83.7479 253.117 83.3551 253.117 82.8778ZM257.612 75.8182V86H256.439V75.8182H257.612ZM260.935 75.8182V86H259.761V75.8182H260.935ZM263.839 88.8636C263.64 88.8636 263.463 88.8471 263.307 88.8139C263.152 88.7841 263.044 88.7543 262.984 88.7244L263.282 87.6903C263.568 87.7633 263.819 87.7898 264.038 87.7699C264.257 87.75 264.451 87.6522 264.62 87.4766C264.792 87.3042 264.95 87.0241 265.092 86.6364L265.311 86.0398L262.487 78.3636H263.76L265.868 84.4489H265.947L268.055 78.3636H269.328L266.086 87.1136C265.941 87.508 265.76 87.8345 265.545 88.093C265.329 88.3549 265.079 88.5488 264.794 88.6747C264.512 88.8007 264.194 88.8636 263.839 88.8636ZM280.223 80.0739L279.169 80.3722C279.103 80.1965 279.005 80.0258 278.876 79.8601C278.75 79.6911 278.578 79.5518 278.359 79.4425C278.14 79.3331 277.86 79.2784 277.519 79.2784C277.051 79.2784 276.662 79.3861 276.35 79.6016C276.042 79.8137 275.888 80.0838 275.888 80.4119C275.888 80.7036 275.994 80.9339 276.206 81.103C276.418 81.272 276.75 81.4129 277.2 81.5256L278.334 81.804C279.017 81.9697 279.526 82.2232 279.86 82.5646C280.195 82.9027 280.362 83.3385 280.362 83.8722C280.362 84.3097 280.236 84.7008 279.985 85.0455C279.736 85.3902 279.388 85.6619 278.941 85.8608C278.493 86.0597 277.973 86.1591 277.379 86.1591C276.601 86.1591 275.956 85.9901 275.445 85.652C274.935 85.3139 274.612 84.8201 274.476 84.1705L275.59 83.892C275.696 84.303 275.896 84.6113 276.191 84.8168C276.49 85.0223 276.879 85.125 277.36 85.125C277.906 85.125 278.341 85.009 278.662 84.777C278.987 84.5417 279.149 84.2599 279.149 83.9318C279.149 83.6667 279.057 83.4446 278.871 83.2656C278.685 83.0833 278.4 82.9474 278.016 82.858L276.743 82.5597C276.044 82.3939 275.53 82.1371 275.202 81.7891C274.877 81.4377 274.715 80.9986 274.715 80.4716C274.715 80.0407 274.836 79.6596 275.078 79.3281C275.323 78.9967 275.656 78.7365 276.077 78.5476C276.501 78.3587 276.982 78.2642 277.519 78.2642C278.274 78.2642 278.868 78.4299 279.298 78.7614C279.733 79.0928 280.041 79.5303 280.223 80.0739ZM282.129 86V78.3636H283.302V86H282.129ZM282.725 77.0909C282.496 77.0909 282.299 77.013 282.134 76.8572C281.971 76.7015 281.89 76.5142 281.89 76.2955C281.89 76.0767 281.971 75.8894 282.134 75.7337C282.299 75.5779 282.496 75.5 282.725 75.5C282.954 75.5 283.149 75.5779 283.312 75.7337C283.478 75.8894 283.56 76.0767 283.56 76.2955C283.56 76.5142 283.478 76.7015 283.312 76.8572C283.149 77.013 282.954 77.0909 282.725 77.0909ZM288.533 89.0227C287.966 89.0227 287.479 88.9498 287.072 88.804C286.664 88.6615 286.324 88.4725 286.052 88.2372C285.784 88.0052 285.57 87.7566 285.411 87.4915L286.346 86.8352C286.452 86.9744 286.586 87.1335 286.748 87.3125C286.911 87.4948 287.133 87.6522 287.415 87.7848C287.7 87.9207 288.073 87.9886 288.533 87.9886C289.15 87.9886 289.658 87.8395 290.059 87.5412C290.461 87.2429 290.661 86.7756 290.661 86.1392V84.5881H290.562C290.475 84.7273 290.353 84.8996 290.194 85.1051C290.038 85.3073 289.813 85.4879 289.518 85.647C289.226 85.8028 288.831 85.8807 288.334 85.8807C287.718 85.8807 287.164 85.7348 286.674 85.4432C286.187 85.1515 285.8 84.7273 285.515 84.1705C285.234 83.6136 285.093 82.9375 285.093 82.142C285.093 81.3598 285.23 80.6787 285.506 80.0987C285.781 79.5154 286.163 79.0646 286.654 78.7464C287.144 78.425 287.711 78.2642 288.354 78.2642C288.851 78.2642 289.246 78.3471 289.537 78.5128C289.832 78.6752 290.058 78.8608 290.214 79.0696C290.373 79.2751 290.495 79.4441 290.581 79.5767H290.701V78.3636H291.834V86.2188C291.834 86.875 291.685 87.4086 291.387 87.8196C291.092 88.2339 290.694 88.5372 290.194 88.7294C289.697 88.925 289.143 89.0227 288.533 89.0227ZM288.493 84.8267C288.964 84.8267 289.362 84.719 289.687 84.5036C290.011 84.2881 290.258 83.9782 290.427 83.5739C290.596 83.1695 290.681 82.6856 290.681 82.1222C290.681 81.572 290.598 81.0864 290.432 80.6655C290.267 80.2446 290.021 79.9148 289.697 79.6761C289.372 79.4375 288.971 79.3182 288.493 79.3182C287.996 79.3182 287.582 79.4441 287.251 79.696C286.922 79.9479 286.675 80.286 286.51 80.7102C286.347 81.1345 286.266 81.6051 286.266 82.1222C286.266 82.6525 286.349 83.1214 286.515 83.5291C286.684 83.9335 286.932 84.2517 287.26 84.4837C287.592 84.7124 288.003 84.8267 288.493 84.8267ZM295.155 81.4062V86H293.982V78.3636H295.116V79.5568H295.215C295.394 79.169 295.666 78.8575 296.03 78.6222C296.395 78.3835 296.866 78.2642 297.442 78.2642C297.959 78.2642 298.412 78.3703 298.8 78.5824C299.187 78.7912 299.489 79.1094 299.704 79.5369C299.92 79.9612 300.028 80.4981 300.028 81.1477V86H298.854V81.2273C298.854 80.6274 298.698 80.16 298.387 79.8253C298.075 79.4872 297.648 79.3182 297.104 79.3182C296.73 79.3182 296.395 79.3994 296.1 79.5618C295.808 79.7242 295.578 79.9612 295.409 80.2727C295.24 80.5843 295.155 80.9621 295.155 81.4062ZM305.373 86.1591C304.637 86.1591 304.003 85.9967 303.469 85.6719C302.939 85.3438 302.529 84.8864 302.241 84.2997C301.956 83.7098 301.814 83.0237 301.814 82.2415C301.814 81.4593 301.956 80.7699 302.241 80.1733C302.529 79.5734 302.931 79.1061 303.444 78.7713C303.961 78.4332 304.565 78.2642 305.254 78.2642C305.652 78.2642 306.044 78.3305 306.432 78.4631C306.82 78.5956 307.173 78.8111 307.491 79.1094C307.809 79.4044 308.063 79.7955 308.252 80.2827C308.441 80.7699 308.535 81.3698 308.535 82.0824V82.5795H302.649V81.5653H307.342C307.342 81.1345 307.256 80.75 307.083 80.4119C306.914 80.0739 306.672 79.8071 306.358 79.6115C306.046 79.416 305.678 79.3182 305.254 79.3182C304.787 79.3182 304.382 79.4342 304.041 79.6662C303.703 79.8949 303.443 80.1932 303.26 80.5611C303.078 80.929 302.987 81.3234 302.987 81.7443V82.4205C302.987 82.9972 303.086 83.486 303.285 83.8871C303.487 84.2848 303.767 84.5881 304.125 84.7969C304.483 85.0024 304.899 85.1051 305.373 85.1051C305.681 85.1051 305.96 85.062 306.208 84.9759C306.46 84.8864 306.677 84.7538 306.86 84.5781C307.042 84.3991 307.183 84.1771 307.282 83.9119L308.416 84.2301C308.297 84.6146 308.096 84.9527 307.814 85.2443C307.533 85.5327 307.185 85.758 306.77 85.9205C306.356 86.0795 305.89 86.1591 305.373 86.1591ZM313.203 86.1591C312.567 86.1591 312.005 85.9983 311.518 85.6768C311.031 85.352 310.65 84.8946 310.375 84.3047C310.1 83.7114 309.962 83.0104 309.962 82.2017C309.962 81.3996 310.1 80.7036 310.375 80.1136C310.65 79.5237 311.033 79.0679 311.523 78.7464C312.014 78.425 312.58 78.2642 313.223 78.2642C313.721 78.2642 314.113 78.3471 314.402 78.5128C314.693 78.6752 314.915 78.8608 315.068 79.0696C315.224 79.2751 315.345 79.4441 315.431 79.5767H315.53V75.8182H316.703V86H315.57V84.8267H315.431C315.345 84.9659 315.222 85.1416 315.063 85.3537C314.904 85.5625 314.677 85.7498 314.382 85.9155C314.087 86.0779 313.694 86.1591 313.203 86.1591ZM313.363 85.1051C313.833 85.1051 314.231 84.9825 314.556 84.7372C314.881 84.4886 315.127 84.1456 315.297 83.7081C315.466 83.2673 315.55 82.7585 315.55 82.1818C315.55 81.6117 315.467 81.1129 315.301 80.6854C315.136 80.2545 314.891 79.9197 314.566 79.6811C314.241 79.4392 313.84 79.3182 313.363 79.3182C312.865 79.3182 312.451 79.4458 312.12 79.701C311.792 79.9529 311.545 80.2959 311.379 80.7301C311.217 81.161 311.135 81.6449 311.135 82.1818C311.135 82.7254 311.218 83.2192 311.384 83.6634C311.553 84.1042 311.801 84.4555 312.13 84.7173C312.461 84.9759 312.872 85.1051 313.363 85.1051ZM327.765 82.8778V78.3636H328.939V86H327.765V84.7074H327.686C327.507 85.0952 327.228 85.425 326.85 85.6967C326.473 85.9652 325.995 86.0994 325.419 86.0994C324.941 86.0994 324.517 85.995 324.146 85.7862C323.775 85.5741 323.483 85.2559 323.271 84.8317C323.059 84.4041 322.953 83.8655 322.953 83.2159V78.3636H324.126V83.1364C324.126 83.6932 324.282 84.1373 324.593 84.4688C324.908 84.8002 325.309 84.9659 325.797 84.9659C326.088 84.9659 326.385 84.8913 326.686 84.7422C326.991 84.593 327.247 84.3643 327.452 84.0561C327.661 83.7479 327.765 83.3551 327.765 82.8778ZM331.088 88.8636V78.3636H332.221V79.5767H332.36C332.446 79.4441 332.566 79.2751 332.718 79.0696C332.874 78.8608 333.096 78.6752 333.384 78.5128C333.676 78.3471 334.07 78.2642 334.568 78.2642C335.211 78.2642 335.777 78.425 336.268 78.7464C336.758 79.0679 337.141 79.5237 337.416 80.1136C337.691 80.7036 337.829 81.3996 337.829 82.2017C337.829 83.0104 337.691 83.7114 337.416 84.3047C337.141 84.8946 336.76 85.352 336.273 85.6768C335.786 85.9983 335.224 86.1591 334.588 86.1591C334.097 86.1591 333.704 86.0779 333.409 85.9155C333.114 85.7498 332.887 85.5625 332.728 85.3537C332.569 85.1416 332.446 84.9659 332.36 84.8267H332.261V88.8636H331.088ZM332.241 82.1818C332.241 82.7585 332.325 83.2673 332.494 83.7081C332.664 84.1456 332.91 84.4886 333.235 84.7372C333.56 84.9825 333.958 85.1051 334.428 85.1051C334.919 85.1051 335.328 84.9759 335.656 84.7173C335.988 84.4555 336.236 84.1042 336.402 83.6634C336.571 83.2192 336.656 82.7254 336.656 82.1818C336.656 81.6449 336.573 81.161 336.407 80.7301C336.245 80.2959 335.998 79.9529 335.666 79.701C335.338 79.4458 334.926 79.3182 334.428 79.3182C333.951 79.3182 333.55 79.4392 333.225 79.6811C332.901 79.9197 332.655 80.2545 332.49 80.6854C332.324 81.1129 332.241 81.6117 332.241 82.1818ZM346.877 78.3636V79.358H342.92V78.3636H346.877ZM344.073 76.5341H345.247V83.8125C345.247 84.1439 345.295 84.3925 345.391 84.5582C345.49 84.7206 345.616 84.83 345.769 84.8864C345.924 84.9394 346.088 84.9659 346.261 84.9659C346.39 84.9659 346.496 84.9593 346.579 84.946C346.662 84.9295 346.728 84.9162 346.778 84.9062L347.017 85.9602C346.937 85.9901 346.826 86.0199 346.683 86.0497C346.541 86.0829 346.36 86.0994 346.142 86.0994C345.81 86.0994 345.485 86.0282 345.167 85.8857C344.852 85.7431 344.59 85.526 344.382 85.2344C344.176 84.9427 344.073 84.5748 344.073 84.1307V76.5341ZM351.662 86.1591C350.973 86.1591 350.368 85.995 349.848 85.6669C349.331 85.3388 348.926 84.8797 348.635 84.2898C348.346 83.6998 348.202 83.0104 348.202 82.2216C348.202 81.4261 348.346 80.7318 348.635 80.1385C348.926 79.5452 349.331 79.0845 349.848 78.7564C350.368 78.4283 350.973 78.2642 351.662 78.2642C352.352 78.2642 352.955 78.4283 353.472 78.7564C353.992 79.0845 354.397 79.5452 354.685 80.1385C354.977 80.7318 355.123 81.4261 355.123 82.2216C355.123 83.0104 354.977 83.6998 354.685 84.2898C354.397 84.8797 353.992 85.3388 353.472 85.6669C352.955 85.995 352.352 86.1591 351.662 86.1591ZM351.662 85.1051C352.186 85.1051 352.617 84.9709 352.955 84.7024C353.293 84.4339 353.543 84.081 353.706 83.6435C353.868 83.206 353.949 82.732 353.949 82.2216C353.949 81.7112 353.868 81.2356 353.706 80.7947C353.543 80.3539 353.293 79.9976 352.955 79.7259C352.617 79.4541 352.186 79.3182 351.662 79.3182C351.139 79.3182 350.708 79.4541 350.37 79.7259C350.032 79.9976 349.782 80.3539 349.619 80.7947C349.457 81.2356 349.376 81.7112 349.376 82.2216C349.376 82.732 349.457 83.206 349.619 83.6435C349.782 84.081 350.032 84.4339 350.37 84.7024C350.708 84.9709 351.139 85.1051 351.662 85.1051ZM369.203 79H367.971C367.898 78.6454 367.77 78.3338 367.588 78.0653C367.409 77.7969 367.19 77.5715 366.931 77.3892C366.676 77.2036 366.393 77.0644 366.081 76.9716C365.77 76.8788 365.445 76.8324 365.107 76.8324C364.49 76.8324 363.932 76.9882 363.431 77.2997C362.934 77.6113 362.538 78.0703 362.243 78.6768C361.952 79.2834 361.806 80.0275 361.806 80.9091C361.806 81.7907 361.952 82.5348 362.243 83.1413C362.538 83.7479 362.934 84.2069 363.431 84.5185C363.932 84.83 364.49 84.9858 365.107 84.9858C365.445 84.9858 365.77 84.9394 366.081 84.8466C366.393 84.7538 366.676 84.6162 366.931 84.4339C367.19 84.2483 367.409 84.0213 367.588 83.7528C367.77 83.4811 367.898 83.1695 367.971 82.8182H369.203C369.111 83.3385 368.942 83.8042 368.696 84.2152C368.451 84.6262 368.146 84.9759 367.782 85.2642C367.417 85.5492 367.008 85.7663 366.554 85.9155C366.103 86.0646 365.621 86.1392 365.107 86.1392C364.239 86.1392 363.466 85.9271 362.79 85.5028C362.114 85.0786 361.582 84.4754 361.194 83.6932C360.806 82.911 360.613 81.983 360.613 80.9091C360.613 79.8352 360.806 78.9072 361.194 78.125C361.582 77.3428 362.114 76.7396 362.79 76.3153C363.466 75.8911 364.239 75.679 365.107 75.679C365.621 75.679 366.103 75.7536 366.554 75.9027C367.008 76.0518 367.417 76.2706 367.782 76.5589C368.146 76.844 368.451 77.192 368.696 77.603C368.942 78.0107 369.111 78.4763 369.203 79ZM373.284 86.179C372.8 86.179 372.361 86.0878 371.966 85.9055C371.572 85.7199 371.259 85.4531 371.027 85.1051C370.795 84.7538 370.679 84.3295 370.679 83.8324C370.679 83.3949 370.765 83.0402 370.937 82.7685C371.11 82.4934 371.34 82.2779 371.628 82.1222C371.917 81.9664 372.235 81.8504 372.583 81.7741C372.934 81.6946 373.287 81.6316 373.642 81.5852C374.106 81.5256 374.482 81.4808 374.77 81.451C375.062 81.4179 375.274 81.3632 375.407 81.2869C375.543 81.2107 375.611 81.0781 375.611 80.8892V80.8494C375.611 80.3589 375.476 79.9777 375.208 79.706C374.943 79.4342 374.54 79.2983 374 79.2983C373.44 79.2983 373.001 79.4209 372.682 79.6662C372.364 79.9115 372.14 80.1733 372.011 80.4517L370.898 80.054C371.096 79.59 371.362 79.2287 371.693 78.9702C372.028 78.7083 372.392 78.526 372.787 78.4233C373.184 78.3172 373.576 78.2642 373.96 78.2642C374.205 78.2642 374.487 78.294 374.805 78.3537C375.127 78.41 375.437 78.5277 375.735 78.7067C376.037 78.8857 376.287 79.1558 376.486 79.517C376.684 79.8783 376.784 80.3622 376.784 80.9688V86H375.611V84.9659H375.551C375.471 85.1316 375.339 85.3089 375.153 85.4979C374.968 85.6868 374.721 85.8475 374.412 85.9801C374.104 86.1127 373.728 86.179 373.284 86.179ZM373.463 85.125C373.927 85.125 374.318 85.0339 374.636 84.8516C374.958 84.6693 375.2 84.4339 375.362 84.1456C375.528 83.8572 375.611 83.554 375.611 83.2358V82.1619C375.561 82.2216 375.452 82.2763 375.282 82.326C375.117 82.3724 374.925 82.4138 374.706 82.4503C374.49 82.4834 374.28 82.5133 374.074 82.5398C373.872 82.563 373.708 82.5829 373.582 82.5994C373.277 82.6392 372.992 82.7038 372.727 82.7933C372.465 82.8795 372.253 83.0104 372.091 83.1861C371.932 83.3584 371.852 83.5937 371.852 83.892C371.852 84.2997 372.003 84.608 372.305 84.8168C372.609 85.0223 372.996 85.125 373.463 85.125ZM378.925 86V78.3636H380.059V79.5568H380.158C380.317 79.1491 380.574 78.8326 380.929 78.6072C381.284 78.3786 381.71 78.2642 382.207 78.2642C382.71 78.2642 383.13 78.3786 383.464 78.6072C383.803 78.8326 384.066 79.1491 384.255 79.5568H384.335C384.53 79.1624 384.823 78.8492 385.214 78.6172C385.606 78.3819 386.075 78.2642 386.621 78.2642C387.304 78.2642 387.863 78.478 388.297 78.9055C388.731 79.3298 388.948 79.991 388.948 80.8892V86H387.775V80.8892C387.775 80.3258 387.621 79.9231 387.312 79.6811C387.004 79.4392 386.641 79.3182 386.224 79.3182C385.687 79.3182 385.271 79.4806 384.976 79.8054C384.681 80.1269 384.533 80.5346 384.533 81.0284V86H383.34V80.7699C383.34 80.3357 383.199 79.986 382.918 79.7209C382.636 79.4524 382.273 79.3182 381.829 79.3182C381.524 79.3182 381.239 79.3994 380.974 79.5618C380.712 79.7242 380.5 79.9496 380.337 80.2379C380.178 80.523 380.099 80.8527 380.099 81.2273V86H378.925ZM391.093 88.8636V78.3636H392.227V79.5767H392.366C392.452 79.4441 392.572 79.2751 392.724 79.0696C392.88 78.8608 393.102 78.6752 393.39 78.5128C393.682 78.3471 394.076 78.2642 394.574 78.2642C395.217 78.2642 395.783 78.425 396.274 78.7464C396.764 79.0679 397.147 79.5237 397.422 80.1136C397.697 80.7036 397.835 81.3996 397.835 82.2017C397.835 83.0104 397.697 83.7114 397.422 84.3047C397.147 84.8946 396.766 85.352 396.279 85.6768C395.792 85.9983 395.23 86.1591 394.593 86.1591C394.103 86.1591 393.71 86.0779 393.415 85.9155C393.12 85.7498 392.893 85.5625 392.734 85.3537C392.575 85.1416 392.452 84.9659 392.366 84.8267H392.267V88.8636H391.093ZM392.247 82.1818C392.247 82.7585 392.331 83.2673 392.5 83.7081C392.669 84.1456 392.916 84.4886 393.241 84.7372C393.566 84.9825 393.964 85.1051 394.434 85.1051C394.925 85.1051 395.334 84.9759 395.662 84.7173C395.994 84.4555 396.242 84.1042 396.408 83.6634C396.577 83.2192 396.662 82.7254 396.662 82.1818C396.662 81.6449 396.579 81.161 396.413 80.7301C396.251 80.2959 396.004 79.9529 395.672 79.701C395.344 79.4458 394.931 79.3182 394.434 79.3182C393.957 79.3182 393.556 79.4392 393.231 79.6811C392.906 79.9197 392.661 80.2545 392.495 80.6854C392.33 81.1129 392.247 81.6117 392.247 82.1818ZM404.437 82.8778V78.3636H405.61V86H404.437V84.7074H404.358C404.179 85.0952 403.9 85.425 403.522 85.6967C403.145 85.9652 402.667 86.0994 402.091 86.0994C401.613 86.0994 401.189 85.995 400.818 85.7862C400.447 85.5741 400.155 85.2559 399.943 84.8317C399.731 84.4041 399.625 83.8655 399.625 83.2159V78.3636H400.798V83.1364C400.798 83.6932 400.954 84.1373 401.265 84.4688C401.58 84.8002 401.981 84.9659 402.468 84.9659C402.76 84.9659 403.057 84.8913 403.358 84.7422C403.663 84.593 403.918 84.3643 404.124 84.0561C404.333 83.7479 404.437 83.3551 404.437 82.8778ZM413.169 80.0739L412.115 80.3722C412.048 80.1965 411.95 80.0258 411.821 79.8601C411.695 79.6911 411.523 79.5518 411.304 79.4425C411.085 79.3331 410.805 79.2784 410.464 79.2784C409.997 79.2784 409.607 79.3861 409.296 79.6016C408.987 79.8137 408.833 80.0838 408.833 80.4119C408.833 80.7036 408.939 80.9339 409.151 81.103C409.364 81.272 409.695 81.4129 410.146 81.5256L411.279 81.804C411.962 81.9697 412.471 82.2232 412.806 82.5646C413.14 82.9027 413.308 83.3385 413.308 83.8722C413.308 84.3097 413.182 84.7008 412.93 85.0455C412.681 85.3902 412.333 85.6619 411.886 85.8608C411.438 86.0597 410.918 86.1591 410.325 86.1591C409.546 86.1591 408.901 85.9901 408.391 85.652C407.88 85.3139 407.557 84.8201 407.421 84.1705L408.535 83.892C408.641 84.303 408.842 84.6113 409.137 84.8168C409.435 85.0223 409.824 85.125 410.305 85.125C410.852 85.125 411.286 85.009 411.607 84.777C411.932 84.5417 412.095 84.2599 412.095 83.9318C412.095 83.6667 412.002 83.4446 411.816 83.2656C411.631 83.0833 411.346 82.9474 410.961 82.858L409.688 82.5597C408.989 82.3939 408.475 82.1371 408.147 81.7891C407.822 81.4377 407.66 80.9986 407.66 80.4716C407.66 80.0407 407.781 79.6596 408.023 79.3281C408.268 78.9967 408.601 78.7365 409.022 78.5476C409.446 78.3587 409.927 78.2642 410.464 78.2642C411.22 78.2642 411.813 78.4299 412.244 78.7614C412.678 79.0928 412.986 79.5303 413.169 80.0739ZM413.637 76.9119V75.8182H421.273V76.9119H418.072V86H416.839V76.9119H413.637ZM422.224 86V78.3636H423.358V79.517H423.437C423.577 79.1392 423.828 78.8326 424.193 78.5973C424.558 78.362 424.969 78.2443 425.426 78.2443C425.512 78.2443 425.62 78.246 425.749 78.2493C425.878 78.2526 425.976 78.2576 426.042 78.2642V79.4574C426.003 79.4474 425.912 79.4325 425.769 79.4126C425.63 79.3894 425.482 79.3778 425.327 79.3778C424.955 79.3778 424.624 79.4557 424.332 79.6115C424.044 79.764 423.815 79.9761 423.646 80.2479C423.48 80.5163 423.398 80.8229 423.398 81.1676V86H422.224ZM429.68 86.179C429.196 86.179 428.757 86.0878 428.363 85.9055C427.969 85.7199 427.655 85.4531 427.423 85.1051C427.191 84.7538 427.075 84.3295 427.075 83.8324C427.075 83.3949 427.161 83.0402 427.334 82.7685C427.506 82.4934 427.737 82.2779 428.025 82.1222C428.313 81.9664 428.631 81.8504 428.979 81.7741C429.331 81.6946 429.684 81.6316 430.038 81.5852C430.502 81.5256 430.879 81.4808 431.167 81.451C431.459 81.4179 431.671 81.3632 431.803 81.2869C431.939 81.2107 432.007 81.0781 432.007 80.8892V80.8494C432.007 80.3589 431.873 79.9777 431.604 79.706C431.339 79.4342 430.937 79.2983 430.396 79.2983C429.836 79.2983 429.397 79.4209 429.079 79.6662C428.761 79.9115 428.537 80.1733 428.408 80.4517L427.294 80.054C427.493 79.59 427.758 79.2287 428.089 78.9702C428.424 78.7083 428.789 78.526 429.183 78.4233C429.581 78.3172 429.972 78.2642 430.357 78.2642C430.602 78.2642 430.884 78.294 431.202 78.3537C431.523 78.41 431.833 78.5277 432.131 78.7067C432.433 78.8857 432.683 79.1558 432.882 79.517C433.081 79.8783 433.18 80.3622 433.18 80.9688V86H432.007V84.9659H431.947C431.868 85.1316 431.735 85.3089 431.55 85.4979C431.364 85.6868 431.117 85.8475 430.809 85.9801C430.501 86.1127 430.125 86.179 429.68 86.179ZM429.859 85.125C430.323 85.125 430.714 85.0339 431.033 84.8516C431.354 84.6693 431.596 84.4339 431.759 84.1456C431.924 83.8572 432.007 83.554 432.007 83.2358V82.1619C431.957 82.2216 431.848 82.2763 431.679 82.326C431.513 82.3724 431.321 82.4138 431.102 82.4503C430.887 82.4834 430.676 82.5133 430.471 82.5398C430.269 82.563 430.105 82.5829 429.979 82.5994C429.674 82.6392 429.389 82.7038 429.124 82.7933C428.862 82.8795 428.65 83.0104 428.487 83.1861C428.328 83.3584 428.249 83.5937 428.249 83.892C428.249 84.2997 428.399 84.608 428.701 84.8168C429.006 85.0223 429.392 85.125 429.859 85.125ZM438.205 86.1591C437.569 86.1591 437.007 85.9983 436.52 85.6768C436.033 85.352 435.652 84.8946 435.377 84.3047C435.102 83.7114 434.964 83.0104 434.964 82.2017C434.964 81.3996 435.102 80.7036 435.377 80.1136C435.652 79.5237 436.035 79.0679 436.525 78.7464C437.016 78.425 437.582 78.2642 438.225 78.2642C438.722 78.2642 439.115 78.3471 439.404 78.5128C439.695 78.6752 439.917 78.8608 440.07 79.0696C440.226 79.2751 440.347 79.4441 440.433 79.5767H440.532V75.8182H441.705V86H440.572V84.8267H440.433C440.347 84.9659 440.224 85.1416 440.065 85.3537C439.906 85.5625 439.679 85.7498 439.384 85.9155C439.089 86.0779 438.696 86.1591 438.205 86.1591ZM438.365 85.1051C438.835 85.1051 439.233 84.9825 439.558 84.7372C439.883 84.4886 440.129 84.1456 440.298 83.7081C440.468 83.2673 440.552 82.7585 440.552 82.1818C440.552 81.6117 440.469 81.1129 440.303 80.6854C440.138 80.2545 439.892 79.9197 439.568 79.6811C439.243 79.4392 438.842 79.3182 438.365 79.3182C437.867 79.3182 437.453 79.4458 437.122 79.701C436.794 79.9529 436.547 80.2959 436.381 80.7301C436.218 81.161 436.137 81.6449 436.137 82.1818C436.137 82.7254 436.22 83.2192 436.386 83.6634C436.555 84.1042 436.803 84.4555 437.132 84.7173C437.463 84.9759 437.874 85.1051 438.365 85.1051ZM447.219 86.1591C446.483 86.1591 445.848 85.9967 445.315 85.6719C444.785 85.3438 444.375 84.8864 444.087 84.2997C443.802 83.7098 443.659 83.0237 443.659 82.2415C443.659 81.4593 443.802 80.7699 444.087 80.1733C444.375 79.5734 444.776 79.1061 445.29 78.7713C445.807 78.4332 446.41 78.2642 447.1 78.2642C447.497 78.2642 447.89 78.3305 448.278 78.4631C448.666 78.5956 449.019 78.8111 449.337 79.1094C449.655 79.4044 449.909 79.7955 450.097 80.2827C450.286 80.7699 450.381 81.3698 450.381 82.0824V82.5795H444.494V81.5653H449.188C449.188 81.1345 449.102 80.75 448.929 80.4119C448.76 80.0739 448.518 79.8071 448.203 79.6115C447.892 79.416 447.524 79.3182 447.1 79.3182C446.632 79.3182 446.228 79.4342 445.887 79.6662C445.548 79.8949 445.288 80.1932 445.106 80.5611C444.924 80.929 444.833 81.3234 444.833 81.7443V82.4205C444.833 82.9972 444.932 83.486 445.131 83.8871C445.333 84.2848 445.613 84.5881 445.971 84.7969C446.329 85.0024 446.745 85.1051 447.219 85.1051C447.527 85.1051 447.806 85.062 448.054 84.9759C448.306 84.8864 448.523 84.7538 448.705 84.5781C448.888 84.3991 449.029 84.1771 449.128 83.9119L450.262 84.2301C450.142 84.6146 449.942 84.9527 449.66 85.2443C449.378 85.5327 449.03 85.758 448.616 85.9205C448.202 86.0795 447.736 86.1591 447.219 86.1591ZM457.654 75.8182L457.555 83.1364H456.401L456.302 75.8182H457.654ZM456.978 86.0795C456.733 86.0795 456.522 85.9917 456.347 85.8161C456.171 85.6404 456.083 85.4299 456.083 85.1847C456.083 84.9394 456.171 84.7289 456.347 84.5533C456.522 84.3776 456.733 84.2898 456.978 84.2898C457.223 84.2898 457.434 84.3776 457.61 84.5533C457.785 84.7289 457.873 84.9394 457.873 85.1847C457.873 85.3471 457.832 85.4962 457.749 85.6321C457.669 85.768 457.561 85.8774 457.426 85.9602C457.293 86.0398 457.144 86.0795 456.978 86.0795Z" fill="#54595E" fill-opacity="0.6"/>
</g>
<defs>
<filter id="filter0_dd_132_406" x="0.5" y="0.5" width="586" height="171" filterUnits="userSpaceOnUse" color-interpolation-filters="sRGB">
<feFlood flood-opacity="0" result="BackgroundImageFix"/>
<feColorMatrix in="SourceAlpha" type="matrix" values="0 0 0 0 0 0 0 0 0 0 0 0 0 0 0 0 0 0 127 0" result="hardAlpha"/>
<feOffset dy="20"/>
<feGaussianBlur stdDeviation="10"/>
<feColorMatrix type="matrix" values="0 0 0 0 0 0 0 0 0 0 0 0 0 0 0 0 0 0 0.08 0"/>
<feBlend mode="normal" in2="BackgroundImageFix" result="effect1_dropShadow_132_406"/>
<feColorMatrix in="SourceAlpha" type="matrix" values="0 0 0 0 0 0 0 0 0 0 0 0 0 0 0 0 0 0 127 0" result="hardAlpha"/>
<feOffset/>
<feGaussianBlur stdDeviation="1"/>
<feColorMatrix type="matrix" values="0 0 0 0 0 0 0 0 0 0 0 0 0 0 0 0 0 0 0.12 0"/>
<feBlend mode="normal" in2="effect1_dropShadow_132_406" result="effect2_dropShadow_132_406"/>
<feBlend mode="normal" in="SourceGraphic" in2="effect2_dropShadow_132_406" result="shape"/>
</filter>
</defs>
</svg>
